<svg width="76" height="48" viewBox="0 0 76 48" fill="none" xmlns="http://www.w3.org/2000/svg">
<path d="M28.4232 21.668H47.6085" stroke="#fff" stroke-width="1.71" stroke-linecap="round" stroke-linejoin="round"/>
<path d="M36.3123 3.99012V2.12891" stroke="#fff" stroke-width="1.71" stroke-linecap="round" stroke-linejoin="round"/>
<path d="M32.2778 3.99048V2.13086" stroke="#fff" stroke-width="1.71" stroke-linecap="round" stroke-linejoin="round"/>
<path d="M40.35 3.99048V2.13086" stroke="#fff" stroke-width="1.71" stroke-linecap="round" stroke-linejoin="round"/>
<path d="M29.7717 13.9301C29.8895 16.2339 31.8733 18.084 34.1724 18.2671C34.9669 18.3308 35.7247 18.3754 36.3552 18.3754C37.0239 18.3754 37.8694 18.326 38.7562 18.256C41.0552 18.0745 43.039 16.2339 43.1585 13.9301C43.1728 13.6387 43.1807 13.3299 43.1807 12.9971C43.1807 11.0197 43.2142 9.35588 43.0534 7.55517C39.6032 7.23674 34.9175 7.20171 31.1967 7.45168C30.827 7.47405 30.4787 7.63224 30.2186 7.89586C29.9585 8.15947 29.805 8.50991 29.7876 8.87983C29.7287 10.2029 29.7478 11.5116 29.7478 12.9971C29.7478 13.3299 29.7558 13.6387 29.7717 13.9301Z" stroke="#fff" stroke-width="1.71" stroke-linecap="round" stroke-linejoin="round"/>
<path d="M43.1538 14.3344C43.3305 14.328 43.5104 14.3217 43.6919 14.3121C45.5117 14.2198 47.1548 12.7741 47.1548 10.9511C47.1548 9.12968 45.5117 7.69038 43.6919 7.58848C43.4797 7.57735 43.2674 7.56832 43.0551 7.56142V7.55664" stroke="#fff" stroke-width="1.71" stroke-linecap="round" stroke-linejoin="round"/>
<path d="M26.4791 32.052H32.3591C32.3591 35.454 30.2591 37.778 26.5071 38.814L25.7791 37.386C28.5511 36.63 30.1051 35.23 30.3991 33.522H26.4791V32.052ZM29.8391 40.494V42.608H34.6831V40.494H29.8391ZM28.0191 44.05V39.038H36.5031V44.05H28.0191ZM34.6551 31.324H36.5031V38.506H34.6551V35.86H32.4291V34.362H34.6551V31.324ZM45.098 37.078L44.118 38.478C43.04 38.03 42.298 37.26 41.85 36.308C41.374 37.4 40.59 38.31 39.4 38.828L38.42 37.386C40.226 36.588 40.926 34.992 40.926 33.522V32.024H42.704V33.522C42.704 34.95 43.39 36.364 45.098 37.078ZM40.716 41.166V39.71H49.592V44.218H47.744V41.166H40.716ZM47.842 31.31H49.592V39.136H47.842V35.93H46.834V39.066H45.112V31.506H46.834V34.446H47.842V31.31Z" fill="#fff"/>
</svg>
