<svg width="76" height="48" viewBox="0 0 76 48" fill="none" xmlns="http://www.w3.org/2000/svg">
<path d="M35.1348 20.7733V17.7156C35.1348 16.9351 35.7722 16.3023 36.5584 16.3023H39.4326C39.8102 16.3023 40.1723 16.4512 40.4393 16.7163C40.7063 16.9813 40.8563 17.3408 40.8563 17.7156V20.7733C40.8539 21.0978 40.9821 21.4099 41.2124 21.6402C41.4427 21.8705 41.756 22 42.0829 22H44.0438C44.9596 22.0024 45.8388 21.6428 46.4872 21.0008C47.1356 20.3588 47.5 19.487 47.5 18.5778V9.86686C47.5 9.13246 47.1721 8.43584 46.6046 7.96467L39.934 2.67587C38.7737 1.74856 37.1111 1.7785 35.9854 2.74698L29.467 7.96467C28.8727 8.42195 28.5176 9.12064 28.5 9.86686V18.5689C28.5 20.4639 30.0474 22 31.9562 22H33.8723C34.5512 22 35.103 21.4562 35.1079 20.7822L35.1348 20.7733Z" stroke="#66707A" stroke-width="2"/>
<path d="M43.2085 32.22V33.606H32.7225V32.22H37.0625V31.212H38.9105V32.22H43.2085ZM35.3265 41.67V42.692H40.6045V41.67H35.3265ZM33.5205 44.05V40.312H42.4245V44.05H33.5205ZM35.6485 35.762C35.6485 36.182 36.3905 36.364 37.9865 36.364C39.5965 36.364 40.3245 36.182 40.3245 35.762C40.3245 35.342 39.5965 35.174 37.9865 35.174C36.3905 35.174 35.6485 35.342 35.6485 35.762ZM38.9105 38.212H43.8245V39.64H32.1485V38.212H37.0625V37.568C34.8925 37.442 33.6745 36.84 33.6745 35.762C33.6745 34.544 35.2285 33.928 37.9865 33.928C40.7585 33.928 42.3125 34.544 42.3125 35.762C42.3125 36.84 41.0945 37.442 38.9105 37.568V38.212Z" fill="#66707A"/>
</svg>
