<svg width="50" height="48" viewBox="0 0 50 48" fill="none" xmlns="http://www.w3.org/2000/svg">
<path d="M25.2592 14.792C24.406 14.3623 23.6889 13.7041 23.1879 12.8908C22.6869 12.0774 22.4217 11.1408 22.4219 10.1855C22.4219 7.33789 24.7305 5.0293 27.5781 5.0293C30.4258 5.0293 32.7344 7.33789 32.7344 10.1855C32.7347 11.1409 32.4695 12.0776 31.9685 12.891C31.4675 13.7045 30.7503 14.3628 29.897 14.7924C32.2488 15.6062 34.0305 17.6223 34.4922 20.0977C34.6412 20.8974 34.1748 21.5509 33.3681 21.6554C32.8366 21.7243 32.0833 21.7913 31.0178 21.8387" stroke="#D8554C" stroke-width="1.5" stroke-linecap="round" stroke-linejoin="round"/>
<path d="M14.9354 16.8333C14.8356 16.0284 15.2879 15.4472 16.0923 15.3764C16.6937 15.3239 17.5675 15.2812 18.8195 15.2812C20.1334 15.2812 21.0423 15.3281 21.6601 15.3844C22.0294 15.4155 22.3797 15.561 22.6624 15.8006C22.945 16.0403 23.1459 16.3621 23.237 16.7212C23.3631 17.2041 23.515 17.8753 23.6847 18.7969C23.755 19.1798 23.8178 19.5159 23.874 19.8108C24.0953 20.9733 25.1842 21.8438 26.3664 21.8438H28.5156H17.357C16.5578 21.8438 15.8397 21.3891 15.6362 20.6048C15.4852 20.007 15.3554 19.4039 15.2472 18.7969C15.1244 18.1455 15.0204 17.4907 14.9354 16.8333Z" stroke="#D8554C" stroke-width="1.5" stroke-linecap="round" stroke-linejoin="round"/>
<path d="M13.4096 37.764V33.9H10.7776V37.764H13.4096ZM8.94364 37.764V33.9H7.19364V32.43H16.9936V33.9H15.2436V37.764H16.9516V39.234H7.26364V37.764H8.94364ZM6.28364 41.208H17.9596V42.706H6.28364V41.208ZM25.9105 41.278H30.8385V42.79H19.1625V41.278H24.0625V39.36H20.5065V34.992H27.7025V33.606H20.4925V32.136H29.5225V36.434H22.3405V37.876H29.8165V39.36H25.9105V41.278ZM42.7795 31.324V37.918H40.9315V31.324H42.7795ZM35.3875 33.522V36.182C35.8355 36.168 36.2975 36.154 36.7455 36.126V33.522H35.3875ZM40.0215 35.888L40.1055 37.19C37.5715 37.61 34.6735 37.68 32.4475 37.68L32.2655 36.224L33.6095 36.21V33.522H32.5875V32.094H39.5315V33.522H38.5235V36.028C39.0415 35.986 39.5315 35.944 40.0215 35.888ZM35.9055 42.678H43.1435V44.106H34.0715V40.592H40.9455V39.85H34.0575V38.436H42.7795V41.908H35.9055V42.678Z" fill="#D8554C"/>
</svg>
