<svg width="76" height="48" viewBox="0 0 76 48" fill="none" xmlns="http://www.w3.org/2000/svg">
<path d="M33.0994 11.207H42.9006" stroke="#fff" stroke-width="1.71" stroke-linecap="round" stroke-linejoin="round"/>
<path d="M33.0994 15.9336H37.7978" stroke="#fff" stroke-width="1.71" stroke-linecap="round" stroke-linejoin="round"/>
<path d="M28.5936 17.6123C28.8499 19.9049 30.7127 21.7232 33.0165 21.8346C34.6087 21.911 36.2343 21.9508 37.9999 21.9508C39.7656 21.9508 41.3912 21.911 42.9834 21.8346C45.2872 21.7232 47.15 19.9034 47.4063 17.6123C47.5799 16.0679 47.7216 14.4869 47.7216 12.874C47.7216 11.2628 47.5783 9.6802 47.4063 8.13742C47.15 5.84473 45.2872 4.0265 42.9834 3.91505C41.3912 3.83863 39.7656 3.79883 37.9999 3.79883C36.2343 3.79883 34.6087 3.83863 33.0165 3.91505C30.7127 4.0265 28.8499 5.84632 28.5936 8.13742C28.42 9.6818 28.2783 11.2628 28.2783 12.874C28.2783 14.4869 28.4216 16.0695 28.5936 17.6123Z" stroke="#fff" stroke-width="1.71" stroke-linecap="round" stroke-linejoin="round"/>
<path d="M33.2235 2.04883V6.09287" stroke="#fff" stroke-width="1.71" stroke-linecap="round" stroke-linejoin="round"/>
<path d="M42.7764 2.04883V6.09287" stroke="#fff" stroke-width="1.71" stroke-linecap="round" stroke-linejoin="round"/>
<path d="M38 2.04883V6.09287" stroke="#fff" stroke-width="1.71" stroke-linecap="round" stroke-linejoin="round"/>
<path d="M28.2991 37.386V39.71C30.2591 39.696 31.8831 39.598 33.7031 39.29L33.8991 40.788C31.7991 41.152 29.9091 41.236 27.5711 41.236H26.4091V35.93H30.5951V33.872H26.3951V32.402H32.4851V37.386H28.2991ZM34.5991 31.296H36.4471V44.232H34.5991V31.296ZM47.072 35.93V34.642H41.766V35.93H47.072ZM48.892 31.772V37.4H39.932V31.772H41.766V33.186H47.072V31.772H48.892ZM50.278 38.618V40.102H47.674V44.218H45.812V40.102H43.054V44.218H41.206V40.102H38.602V38.618H50.278Z" fill="#fff"/>
</svg>
