<svg width="77" height="48" viewBox="0 0 77 48" fill="none" xmlns="http://www.w3.org/2000/svg">
<path d="M38.4999 9.19261C35.978 6.09907 33.3159 8.29782 33.2809 10.6669C33.2809 14.1951 37.5017 17.0912 38.4999 17.0912C39.4982 17.0912 43.719 14.1951 43.719 10.6669C43.6839 8.29782 41.0219 6.09748 38.4999 9.19261Z" fill="white" stroke="#D8554C" stroke-width="1.71" stroke-linecap="round" stroke-linejoin="round"/>
<path d="M38.5 21.9506C44.8685 21.9506 48.4509 18.3683 48.4509 11.9997C48.4509 5.63115 44.8685 2.04883 38.5 2.04883C32.1314 2.04883 28.5491 5.63115 28.5491 11.9997C28.5491 18.3683 32.1314 21.9506 38.5 21.9506Z" stroke="#D8554C" stroke-width="1.71" stroke-linecap="round" stroke-linejoin="round"/>
<path d="M41.5385 37.19L40.5865 38.506C39.6765 38.016 39.1025 37.232 38.7805 36.28C38.4585 37.26 37.8985 38.114 36.9605 38.632C36.0365 38.114 35.4765 37.26 35.1545 36.308C34.8325 37.246 34.2585 38.03 33.3625 38.506L32.4105 37.19C33.7965 36.448 34.2445 34.978 34.2865 33.55H32.9005V32.08H36.7225V33.55H36.0085C36.0365 34.572 36.2465 35.706 36.9605 36.574C37.6745 35.706 37.8845 34.586 37.9125 33.55H37.2125V32.08H40.9225V33.55H39.6625C39.7045 34.992 40.1385 36.448 41.5385 37.19ZM36.5825 40.858V42.58H41.8465V40.858H36.5825ZM34.7765 44.05V39.388H43.6665V44.05H34.7765ZM41.8045 31.31H43.6665V38.786H41.8045V31.31Z" fill="#D8554C"/>
</svg>
