<svg width="96" height="96" viewBox="0 0 96 96" fill="none" xmlns="http://www.w3.org/2000/svg">
<path fill-rule="evenodd" clip-rule="evenodd" d="M20.9787 72.0955C21.0921 72.636 20.746 73.1662 20.2055 73.2796C16.5492 74.0472 13.646 74.964 11.6815 75.9576C10.6977 76.4551 9.99975 76.9471 9.56001 77.4082C9.12445 77.8649 9 78.2266 9 78.4999C9 78.763 9.11468 79.106 9.50986 79.538C9.91009 79.9755 10.5481 80.4456 11.4537 80.9245C13.2631 81.8814 15.9472 82.7737 19.3482 83.5345C26.1341 85.0524 35.5575 85.9999 46 85.9999C56.4425 85.9999 65.8659 85.0524 72.6518 83.5345C76.0528 82.7737 78.7369 81.8814 80.5463 80.9245C81.4519 80.4456 82.0899 79.9755 82.4901 79.538C82.8853 79.106 83 78.763 83 78.4999C83 78.2266 82.8756 77.8649 82.44 77.4082C82.0003 76.9471 81.3023 76.4551 80.3185 75.9576C78.354 74.964 75.4508 74.0472 71.7945 73.2796C71.254 73.1662 70.9079 72.636 71.0213 72.0955C71.1348 71.555 71.665 71.2088 72.2055 71.3223C75.9354 72.1054 79.0321 73.0657 81.2211 74.1728C82.3141 74.7256 83.2312 75.3399 83.8874 76.0279C84.5477 76.7204 85 77.5509 85 78.4999C85 79.4105 84.583 80.2133 83.9658 80.888C83.3537 81.5571 82.4985 82.1545 81.4813 82.6925C79.4449 83.7695 76.5639 84.7088 73.0883 85.4862C66.1209 87.0447 56.5443 87.9999 46 87.9999C35.4557 87.9999 25.879 87.0447 18.9117 85.4862C15.4361 84.7088 12.5551 83.7695 10.5187 82.6925C9.50147 82.1545 8.64634 81.5571 8.03419 80.888C7.41698 80.2133 7 79.4105 7 78.4999C7 77.5509 7.45228 76.7204 8.11263 76.0279C8.7688 75.3399 9.6859 74.7256 10.7789 74.1728C12.9679 73.0657 16.0646 72.1054 19.7945 71.3223C20.335 71.2088 20.8652 71.555 20.9787 72.0955Z" fill="#AC7349"/>
<path fill-rule="evenodd" clip-rule="evenodd" d="M75.5094 64.7174C75.2315 64.2621 75.147 63.7147 75.2747 63.1968C75.566 62.015 75.766 60.7855 75.8811 59.5313C75.9352 58.9417 76.2477 58.4064 76.7345 58.0695C77.2214 57.7326 77.8325 57.6286 78.4033 57.7857C78.9095 57.925 79.4444 58 80.0001 58C83.3138 58 86.0001 55.3137 86.0001 52C86.0001 48.6863 83.3138 46 80.0001 46C79.479 46 78.9763 46.0659 78.4986 46.1889C77.8998 46.343 77.2634 46.2115 76.7747 45.8327C76.286 45.4539 76.0001 44.8703 76.0001 44.252V40.1659C76.0001 39.189 76.7057 38.3551 77.6691 38.1935C78.4285 38.0661 79.2073 38 80.0001 38C87.732 38 94.0001 44.268 94.0001 52C94.0001 59.732 87.732 66 80.0001 66C78.8851 66 77.798 65.8693 76.7544 65.6214C76.2354 65.4981 75.7872 65.1727 75.5094 64.7174ZM79.8548 59.9987C79.1696 59.9865 78.5055 59.8882 77.8727 59.7141C77.8111 60.3857 77.7265 61.0534 77.6178 61.714C77.5314 62.2386 77.4298 62.7587 77.3122 63.2727C77.2814 63.4074 77.2495 63.5417 77.2166 63.6755C77.8599 63.8283 78.5234 63.9293 79.2022 63.9739C79.4659 63.9912 79.732 64 80.0001 64C86.6275 64 92.0001 58.6274 92.0001 52C92.0001 45.3726 86.6275 40 80.0001 40C79.3186 40 78.6505 40.0568 78.0001 40.1659V44.252C78.6393 44.0875 79.3095 44 80.0001 44C84.4183 44 88.0001 47.5817 88.0001 52C88.0001 56.4183 84.4183 60 80.0001 60C79.9515 60 79.9031 59.9996 79.8548 59.9987Z" fill="#AC7349"/>
<path fill-rule="evenodd" clip-rule="evenodd" d="M15 31C15.5523 31 16 31.4477 16 32V57.0087C16 63.9888 18.4141 70.7458 24.4626 73.9544C29.4078 76.5776 36.5327 79 46 79C55.4673 79 62.5922 76.5776 67.5374 73.9544C73.5859 70.7458 76 63.9888 76 57.0087V32C76 31.4477 76.4477 31 77 31C77.5523 31 78 31.4477 78 32V57.0087C78 64.3491 75.4555 72.0181 68.4747 75.7212C63.2681 78.4831 55.8237 81 46 81C36.1763 81 28.7319 78.4831 23.5253 75.7212C16.5445 72.0181 14 64.3491 14 57.0087V32C14 31.4477 14.4477 31 15 31Z" fill="#AC7349"/>
<path fill-rule="evenodd" clip-rule="evenodd" d="M67.445 35.9614C61.9176 36.6063 54.3365 37 46 37C37.6635 37 30.0824 36.6063 24.555 35.9614C21.8048 35.6405 19.4901 35.2494 17.8257 34.7904C17.0091 34.5651 16.2329 34.2929 15.6189 33.9428C15.3124 33.7681 14.951 33.521 14.6464 33.171C14.3304 32.808 14 32.2406 14 31.5C14 30.7594 14.3304 30.192 14.6464 29.829C14.951 29.479 15.3124 29.2319 15.6189 29.0572C16.2329 28.7071 17.0091 28.4349 17.8257 28.2096C19.4901 27.7506 21.8048 27.3595 24.555 27.0386C30.0824 26.3937 37.6635 26 46 26C54.3365 26 61.9176 26.3937 67.445 27.0386C70.1952 27.3595 72.5099 27.7506 74.1743 28.2096C74.9909 28.4349 75.7671 28.7071 76.3811 29.0572C76.6876 29.2319 77.049 29.479 77.3536 29.829C77.6696 30.192 78 30.7594 78 31.5C78 32.2406 77.6696 32.808 77.3536 33.171C77.049 33.521 76.6876 33.7681 76.3811 33.9428C75.7671 34.2929 74.9909 34.5651 74.1743 34.7904C72.5099 35.2494 70.1952 35.6405 67.445 35.9614ZM46 35C62.5685 35 76 33.433 76 31.5C76 29.567 62.5685 28 46 28C29.4315 28 16 29.567 16 31.5C16 33.433 29.4315 35 46 35Z" fill="#AC7349"/>
<path fill-rule="evenodd" clip-rule="evenodd" d="M22 40C22.5523 40 23 40.4477 23 41V47C23 47.5523 22.5523 48 22 48C21.4477 48 21 47.5523 21 47V41C21 40.4477 21.4477 40 22 40Z" fill="white"/>
</svg>
