<svg xmlns="http://www.w3.org/2000/svg" width="44" height="44" viewBox="0 0 44 44">
    <g fill="none" fill-rule="evenodd">
        <rect stroke="#E0E0E0" fill="#FFF" x=".5" y=".5" width="43" height="43" rx="21.5"/>
        <path d="M31.167 22.4c0-.664-.06-1.301-.17-1.914h-8.81v3.619h5.034a4.303 4.303 0 0 1-1.866 2.823v2.347h3.023c1.768-1.629 2.789-4.027 2.789-6.875z" fill="#4285F4"/>
        <path d="M22.187 31.54c2.526 0 4.643-.837 6.19-2.265l-3.022-2.347c-.838.56-1.91.893-3.168.893-2.436 0-4.498-1.646-5.234-3.857h-3.125v2.424a9.35 9.35 0 0 0 8.36 5.153z" fill="#34A853"/>
        <path d="M16.953 23.964a5.623 5.623 0 0 1-.293-1.777c0-.616.106-1.216.293-1.777v-2.424h-3.125a9.35 9.35 0 0 0-.995 4.201c0 1.51.362 2.938.995 4.2l3.125-2.423z" fill="#FBBC05"/>
        <path d="M22.187 16.554c1.373 0 2.606.472 3.576 1.398l2.683-2.682c-1.62-1.51-3.738-2.437-6.259-2.437a9.35 9.35 0 0 0-8.359 5.153l3.125 2.424c.736-2.211 2.798-3.856 5.234-3.856z" fill="#EA4335"/>
    </g>
</svg>