<svg width="45" height="44" viewBox="0 0 45 44" fill="none" xmlns="http://www.w3.org/2000/svg">
<g clip-path="url(#clip0_3722_15754)">
<path d="M22.5 44C34.6503 44 44.5 34.1503 44.5 22C44.5 9.84974 34.6503 0 22.5 0C10.3497 0 0.5 9.84974 0.5 22C0.5 34.1503 10.3497 44 22.5 44Z" fill="#FEEA00"/>
<path fill-rule="evenodd" clip-rule="evenodd" d="M22.278 13C16.878 13 12.5 16.409 12.5 20.613C12.5 23.349 14.355 25.748 17.139 27.09C16.934 27.842 16.399 29.814 16.291 30.236C16.158 30.76 16.486 30.753 16.701 30.612C16.869 30.502 19.379 28.82 20.463 28.094C21.064 28.1818 21.6706 28.2259 22.278 28.226C27.678 28.226 32.056 24.817 32.056 20.613C32.056 16.409 27.678 13 22.278 13Z" fill="#381E1F"/>
</g>
<defs>
<clipPath id="clip0_3722_15754">
<rect width="44" height="44" fill="white" transform="translate(0.5)"/>
</clipPath>
</defs>
</svg>
