<svg width="28" height="28" viewBox="0 0 28 28" fill="none" xmlns="http://www.w3.org/2000/svg">
<path d="M25.478 5.98818L23.6858 7.78041C24.8395 9.57432 25.5118 11.7061 25.5118 13.9983C25.5118 20.3564 20.3581 25.5101 14 25.5101C7.64189 25.5101 2.48817 20.3564 2.48817 13.9983C2.48817 7.6402 7.64189 2.48818 14 2.48818C16.2905 2.48818 18.424 3.16047 20.2179 4.31419L22.0101 2.52196C19.7399 0.934122 16.9797 0 14 0C6.26858 0 0 6.26689 0 14C0 21.7331 6.26689 28 14 28C21.7331 28 28 21.7331 28 14C28 11.0203 27.0659 8.26013 25.478 5.98986V5.98818Z" fill="#C6E0F4"/>
<path d="M14.0001 2.48744C7.642 2.48744 2.48828 7.64115 2.48828 13.9993C2.48828 20.3574 7.642 25.5111 14.0001 25.5111C20.3582 25.5111 25.5119 20.3574 25.5119 13.9993C25.5119 11.7087 24.8396 9.57527 23.6859 7.78136L25.4781 5.98913L26.2146 5.25264C27.1724 4.29487 27.1724 2.7425 26.2146 1.78473C25.2569 0.826964 23.7045 0.826964 22.7467 1.78473L22.0102 2.52122L20.218 4.31345C18.4241 3.15973 16.2923 2.48744 14.0001 2.48744ZM21.7906 9.67494C22.5035 10.9553 22.9106 12.43 22.9106 13.9993C22.9106 18.9199 18.9207 22.9097 14.0001 22.9097C9.0795 22.9097 5.08963 18.9199 5.08963 13.9993C5.08963 9.07865 9.0795 5.08879 14.0001 5.08879C15.5694 5.08879 17.044 5.49588 18.3244 6.20872C19.7788 7.01784 20.9832 8.22223 21.7923 9.67663L21.7906 9.67494Z" fill="#F9F6F6"/>
<path d="M14.0003 5.08763C9.07971 5.08763 5.08984 9.07749 5.08984 13.9981C5.08984 18.9187 9.07971 22.9086 14.0003 22.9086C18.9209 22.9086 22.9108 18.9187 22.9108 13.9981C22.9108 12.4288 22.5037 10.9542 21.7909 9.67378C20.9817 8.21938 19.7773 7.01499 18.323 6.20587C17.0425 5.49303 15.5679 5.08594 13.9986 5.08594L14.0003 5.08763ZM10.9952 11.4052C11.6371 10.7633 12.6794 10.7633 13.323 11.4052L14.0003 12.0826L14.6777 11.4052C15.3196 10.7633 16.3618 10.7633 17.0054 11.4052C17.6473 12.0471 17.6473 13.0893 17.0054 13.7329L16.328 14.4103L14.0003 16.738L11.6726 14.4103L10.9952 13.7329C10.3534 13.091 10.3534 12.0488 10.9952 11.4052ZM20.4902 14.0336C20.4902 17.6383 17.8415 20.5589 13.9986 20.5589C10.1557 20.5589 7.50707 17.6366 7.50707 14.0336C7.50707 12.5099 8.02734 11.1096 8.89896 9.9981C8.28072 10.8917 7.92092 11.9559 7.92092 13.1011C7.92092 16.2515 10.6675 18.8072 13.9986 18.8072C17.3297 18.8072 20.0763 16.2532 20.0763 13.1011C20.0763 11.9576 19.7165 10.8917 19.0983 9.9981C19.9682 11.1079 20.4902 12.5099 20.4902 14.0336Z" fill="white"/>
<path d="M14.0003 18.8072C10.6693 18.8072 7.92264 16.2531 7.92264 13.1011C7.92264 11.9575 8.28244 10.8916 8.90068 9.99805C8.03075 11.1078 7.50879 12.5099 7.50879 14.0335C7.50879 17.6383 10.1574 20.5589 14.0003 20.5589C17.8432 20.5589 20.4919 17.6366 20.4919 14.0335C20.4919 12.5099 19.9716 11.1095 19.1 9.99805C19.7182 10.8916 20.078 11.9558 20.078 13.1011C20.078 16.2514 17.3314 18.8072 14.0003 18.8072Z" fill="#FBDEB8"/>
<path d="M11.6725 14.4103L14.0002 16.738L16.3279 14.4103L17.0052 13.733C17.6471 13.0911 17.6471 12.0488 17.0052 11.4052C16.3633 10.7634 15.3211 10.7634 14.6775 11.4052L14.0002 12.0826L13.3228 11.4052C12.6809 10.7634 11.6387 10.7634 10.9951 11.4052C10.3532 12.0471 10.3532 13.0894 10.9951 13.733L11.6725 14.4103Z" fill="#FBDEB8"/>
</svg>
