<svg width="21" height="22" viewBox="0 0 21 22" fill="none" xmlns="http://www.w3.org/2000/svg">
<path d="M7.63478 19.3172V16.4737C7.63478 15.7479 8.27217 15.1595 9.05844 15.1595H11.9326C12.3102 15.1595 12.6723 15.2979 12.9393 15.5444C13.2063 15.7909 13.3563 16.1252 13.3563 16.4737V19.3172C13.3539 19.619 13.4821 19.9091 13.7124 20.1233C13.9427 20.3375 14.256 20.4579 14.5829 20.4579H16.5438C17.4596 20.4601 18.3388 20.1258 18.9872 19.5287C19.6356 18.9317 20 18.121 20 17.2755V9.17497C20 8.49204 19.6721 7.84423 19.1046 7.40608L12.434 2.48788C11.2737 1.62556 9.61111 1.6534 8.48539 2.55401L1.96701 7.40608C1.37274 7.83132 1.01755 8.48104 1 9.17497V17.2673C1 19.0294 2.54738 20.4579 4.45617 20.4579H6.37229C7.05123 20.4579 7.603 19.9522 7.60792 19.3255L7.63478 19.3172Z" stroke="#434E58" stroke-width="2"/>
</svg>
