<svg xmlns="http://www.w3.org/2000/svg" width="15" height="15" viewBox="0 0 15 15" fill="none">
<g clip-path="url(#clip0_5132_18882)">
<path fill-rule="evenodd" clip-rule="evenodd" d="M7.5 1.875C4.3934 1.875 1.875 4.3934 1.875 7.5C1.875 10.6066 4.3934 13.125 7.5 13.125C10.6066 13.125 13.125 10.6066 13.125 7.5C13.125 4.3934 10.6066 1.875 7.5 1.875ZM0.625 7.5C0.625 3.70304 3.70304 0.625 7.5 0.625C11.297 0.625 14.375 3.70304 14.375 7.5C14.375 11.297 11.297 14.375 7.5 14.375C3.70304 14.375 0.625 11.297 0.625 7.5Z" fill="#161719"/>
<path fill-rule="evenodd" clip-rule="evenodd" d="M7.5 3.125C7.84518 3.125 8.125 3.40482 8.125 3.75V7.11373L10.2795 8.19098C10.5882 8.34535 10.7134 8.72077 10.559 9.02951C10.4046 9.33824 10.0292 9.46339 9.72049 9.30902L7.22049 8.05902C7.00875 7.95315 6.875 7.73673 6.875 7.5V3.75C6.875 3.40482 7.15482 3.125 7.5 3.125Z" fill="#161719"/>
</g>
<defs>
<clipPath id="clip0_5132_18882">
<rect width="15" height="15" fill="white"/>
</clipPath>
</defs>
</svg>