<svg xmlns="http://www.w3.org/2000/svg" width="14" height="14" viewBox="0 0 14 14" fill="none">
<g clip-path="url(#clip0_5130_10105)">
<path d="M8.75991 12.9997C9.37573 13.397 10.1096 13.5701 10.838 13.49C11.5665 13.4099 12.2452 13.0814 12.7599 12.5597L13.2099 12.1197C13.4072 11.9179 13.5177 11.6469 13.5177 11.3647C13.5177 11.0825 13.4072 10.8115 13.2099 10.6097L11.2999 8.7197C11.0998 8.52305 10.8305 8.41285 10.5499 8.41285C10.2693 8.41285 10 8.52305 9.79991 8.7197V8.7197C9.59811 8.91698 9.32712 9.02745 9.04491 9.02745C8.7627 9.02745 8.4917 8.91698 8.28991 8.7197L5.28991 5.7197C5.18983 5.62108 5.11036 5.50354 5.05611 5.37393C5.00187 5.24431 4.97393 5.10521 4.97393 4.9647C4.97393 4.82419 5.00187 4.68509 5.05611 4.55547C5.11036 4.42586 5.18983 4.30832 5.28991 4.2097V4.2097C5.48656 4.0096 5.59676 3.74026 5.59676 3.4597C5.59676 3.17914 5.48656 2.9098 5.28991 2.7097L3.38991 0.8097C3.18811 0.612415 2.91711 0.501953 2.63491 0.501953C2.3527 0.501953 2.0817 0.612415 1.87991 0.8097L1.43991 1.2597C0.918252 1.77444 0.589741 2.4531 0.50961 3.18157C0.429479 3.91003 0.602615 4.64387 0.999906 5.2597C3.06995 8.31043 5.70384 10.9375 8.75991 12.9997V12.9997Z" stroke="#000001" stroke-linecap="round" stroke-linejoin="round"/>
</g>
<defs>
<clipPath id="clip0_5130_10105">
<rect width="14" height="14" fill="white"/>
</clipPath>
</defs>
</svg>