<svg width="100" height="20" viewBox="0 0 100 20" fill="none" xmlns="http://www.w3.org/2000/svg">
<path fill-rule="evenodd" clip-rule="evenodd" d="M4.37023 15.021C4.39387 15.1336 4.32175 15.2441 4.20915 15.2677C3.44743 15.4276 2.84258 15.6186 2.43332 15.8256C2.22837 15.9293 2.08296 16.0318 1.99134 16.1278C1.9006 16.223 1.87467 16.2983 1.87467 16.3553C1.87467 16.4101 1.89857 16.4816 1.9809 16.5716C2.06428 16.6627 2.19719 16.7606 2.38587 16.8604C2.76283 17.0598 3.322 17.2457 4.03056 17.4042C5.44428 17.7204 7.40748 17.9178 9.58301 17.9178C11.7585 17.9178 13.7217 17.7204 15.1355 17.4042C15.844 17.2457 16.4032 17.0598 16.7801 16.8604C16.9688 16.7606 17.1017 16.6627 17.1851 16.5716C17.2674 16.4816 17.2913 16.4101 17.2913 16.3553C17.2913 16.2983 17.2654 16.223 17.1747 16.1278C17.0831 16.0318 16.9376 15.9293 16.7327 15.8256C16.3234 15.6186 15.7186 15.4276 14.9569 15.2677C14.8443 15.2441 14.7721 15.1336 14.7958 15.021C14.8194 14.9084 14.9299 14.8363 15.0425 14.86C15.8195 15.0231 16.4647 15.2232 16.9207 15.4538C17.1484 15.569 17.3395 15.6969 17.4762 15.8403C17.6138 15.9846 17.708 16.1576 17.708 16.3553C17.708 16.545 17.6211 16.7122 17.4926 16.8528C17.365 16.9922 17.1869 17.1167 16.9749 17.2287C16.5507 17.4531 15.9505 17.6488 15.2264 17.8108C13.7749 18.1355 11.7797 18.3345 9.58301 18.3345C7.38628 18.3345 5.39114 18.1355 3.9396 17.8108C3.21552 17.6488 2.61532 17.4531 2.19108 17.2287C1.97915 17.1167 1.801 16.9922 1.67346 16.8528C1.54488 16.7122 1.45801 16.545 1.45801 16.3553C1.45801 16.1576 1.55223 15.9846 1.68981 15.8403C1.82651 15.6969 2.01757 15.569 2.24527 15.4538C2.70131 15.2232 3.34647 15.0231 4.12354 14.86C4.23614 14.8363 4.34659 14.9084 4.37023 15.021Z" fill="#AC7349"/>
<path fill-rule="evenodd" clip-rule="evenodd" d="M15.7309 13.4841C15.673 13.3892 15.6554 13.2752 15.682 13.1673C15.7427 12.9211 15.7844 12.665 15.8084 12.4037C15.8196 12.2808 15.8847 12.1693 15.9862 12.0991C16.0876 12.0289 16.2149 12.0073 16.3338 12.04C16.4393 12.069 16.5507 12.0846 16.6665 12.0846C17.3568 12.0846 17.9165 11.525 17.9165 10.8346C17.9165 10.1443 17.3568 9.58464 16.6665 9.58464C16.5579 9.58464 16.4532 9.59837 16.3537 9.62399C16.2289 9.6561 16.0963 9.6287 15.9945 9.54978C15.8927 9.47086 15.8332 9.34929 15.8332 9.22048V8.3692C15.8332 8.16569 15.9802 7.99195 16.1809 7.95828C16.3391 7.93174 16.5013 7.91797 16.6665 7.91797C18.2773 7.91797 19.5832 9.2238 19.5832 10.8346C19.5832 12.4455 18.2773 13.7513 16.6665 13.7513C16.4342 13.7513 16.2077 13.7241 15.9903 13.6724C15.8822 13.6467 15.7888 13.5789 15.7309 13.4841ZM16.6362 12.501C16.4935 12.4985 16.3551 12.478 16.2233 12.4417C16.2104 12.5817 16.1928 12.7208 16.1702 12.8584C16.1522 12.9677 16.131 13.076 16.1065 13.1831C16.1001 13.2112 16.0935 13.2392 16.0866 13.267C16.2206 13.2989 16.3588 13.3199 16.5003 13.3292C16.5552 13.3328 16.6106 13.3346 16.6665 13.3346C18.0472 13.3346 19.1665 12.2153 19.1665 10.8346C19.1665 9.45392 18.0472 8.33464 16.6665 8.33464C16.5245 8.33464 16.3853 8.34647 16.2498 8.3692V9.22048C16.383 9.1862 16.5226 9.16797 16.6665 9.16797C17.587 9.16797 18.3332 9.91416 18.3332 10.8346C18.3332 11.7551 17.587 12.5013 16.6665 12.5013C16.6564 12.5013 16.6463 12.5012 16.6362 12.501Z" fill="#AC7349"/>
<path fill-rule="evenodd" clip-rule="evenodd" d="M3.12435 6.46094C3.23941 6.46094 3.33268 6.55421 3.33268 6.66927V11.8794C3.33268 13.3336 3.83562 14.7413 5.09571 15.4098C6.12597 15.9563 7.61033 16.4609 9.58268 16.4609C11.555 16.4609 13.0394 15.9563 14.0696 15.4098C15.3297 14.7413 15.8327 13.3336 15.8327 11.8794V6.66927C15.8327 6.55421 15.926 6.46094 16.041 6.46094C16.1561 6.46094 16.2493 6.55421 16.2493 6.66927V11.8794C16.2493 13.4087 15.7192 15.0064 14.2649 15.7778C13.1802 16.3532 11.6293 16.8776 9.58268 16.8776C7.53608 16.8776 5.98515 16.3532 4.90046 15.7778C3.44612 15.0064 2.91602 13.4087 2.91602 11.8794V6.66927C2.91602 6.55421 3.00929 6.46094 3.12435 6.46094Z" fill="#AC7349"/>
<path fill-rule="evenodd" clip-rule="evenodd" d="M3.75 7.66016V11.9668C3.75 13.0856 4.12023 14.2018 5.06419 14.8024C6.02096 15.4111 7.51319 16.0437 9.58333 16.0437C11.6535 16.0437 13.1457 15.4111 14.1025 14.8024C15.0464 14.2018 15.4167 13.0856 15.4167 11.9668V7.66016C14.5138 7.93325 12.2425 8.127 9.58333 8.127C6.92417 8.127 4.65288 7.93325 3.75 7.66016Z" fill="#75370A"/>
<path d="M14.1018 14.8024C15.0458 14.2018 15.416 13.0856 15.416 11.9668V7.66016C14.9292 7.8074 14.0447 7.93157 12.916 8.01475V15.4151C13.3764 15.2261 13.7711 15.0128 14.1018 14.8024Z" fill="#572908"/>
<path d="M5.06419 14.8024C4.12023 14.2018 3.75 13.0856 3.75 11.9668V7.66016C4.14285 7.77898 4.79478 7.88279 5.625 7.96215V15.1254C5.42101 15.0194 5.23415 14.9105 5.06419 14.8024Z" fill="#8E4917"/>
<path fill-rule="evenodd" clip-rule="evenodd" d="M14.0504 7.49326C12.8988 7.62761 11.3195 7.70964 9.58268 7.70964C7.8459 7.70964 6.26651 7.62761 5.11498 7.49326C4.54201 7.42641 4.05979 7.34494 3.71305 7.24929C3.54292 7.20237 3.3812 7.14565 3.25329 7.07272C3.18943 7.03632 3.11415 6.98484 3.05067 6.91193C2.98485 6.83631 2.91602 6.71809 2.91602 6.5638C2.91602 6.40951 2.98485 6.2913 3.05067 6.21568C3.11415 6.14276 3.18943 6.09129 3.25329 6.05488C3.3812 5.98195 3.54292 5.92524 3.71305 5.87831C4.05979 5.78267 4.54201 5.70119 5.11498 5.63434C6.26651 5.5 7.8459 5.41797 9.58268 5.41797C11.3195 5.41797 12.8988 5.5 14.0504 5.63434C14.6233 5.70119 15.1056 5.78267 15.4523 5.87831C15.6224 5.92524 15.7842 5.98195 15.9121 6.05488C15.9759 6.09129 16.0512 6.14276 16.1147 6.21568C16.1805 6.2913 16.2493 6.40951 16.2493 6.5638C16.2493 6.71809 16.1805 6.83631 16.1147 6.91193C16.0512 6.98484 15.9759 7.03632 15.9121 7.07272C15.7842 7.14565 15.6224 7.20237 15.4523 7.24929C15.1056 7.34494 14.6233 7.42641 14.0504 7.49326ZM9.58268 7.29297C13.0345 7.29297 15.8327 6.96651 15.8327 6.5638C15.8327 6.16109 13.0345 5.83464 9.58268 5.83464C6.1309 5.83464 3.33268 6.16109 3.33268 6.5638C3.33268 6.96651 6.1309 7.29297 9.58268 7.29297Z" fill="#AC7349"/>
<path fill-rule="evenodd" clip-rule="evenodd" d="M4.58333 8.33594C4.69839 8.33594 4.79167 8.42921 4.79167 8.54427V9.79427C4.79167 9.90933 4.69839 10.0026 4.58333 10.0026C4.46827 10.0026 4.375 9.90933 4.375 9.79427V8.54427C4.375 8.42921 4.46827 8.33594 4.58333 8.33594Z" fill="white"/>
<path d="M15.4167 6.5638C15.4167 6.85145 12.805 7.08464 9.58333 7.08464C6.36167 7.08464 3.75 6.85145 3.75 6.5638C3.75 6.27615 6.36167 6.04297 9.58333 6.04297C12.805 6.04297 15.4167 6.27615 15.4167 6.5638Z" fill="#75370A"/>
<path d="M13.1246 13.6194C13.1246 13.7868 12.9889 13.9225 12.8216 13.9225C12.6542 13.9225 12.5186 13.7868 12.5186 13.6194C12.5186 13.4521 12.6542 13.3164 12.8216 13.3164C12.9889 13.3164 13.1246 13.4521 13.1246 13.6194Z" fill="#572908"/>
<path d="M12.2154 13.014C12.2154 13.1813 12.0798 13.317 11.9124 13.317C11.745 13.317 11.6094 13.1813 11.6094 13.014C11.6094 12.8466 11.745 12.7109 11.9124 12.7109C12.0798 12.7109 12.2154 12.8466 12.2154 13.014Z" fill="#572908"/>
<path d="M11.6481 12.178C11.6481 12.3454 11.5124 12.4811 11.345 12.4811C11.1777 12.4811 11.042 12.3454 11.042 12.178C11.042 12.0107 11.1777 11.875 11.345 11.875C11.5124 11.875 11.6481 12.0107 11.6481 12.178Z" fill="#572908"/>
<path d="M10.852 13.1843C10.852 13.3098 10.7503 13.4116 10.6247 13.4116C10.4992 13.4116 10.3975 13.3098 10.3975 13.1843C10.3975 13.0588 10.4992 12.957 10.6247 12.957C10.7503 12.957 10.852 13.0588 10.852 13.1843Z" fill="#572908"/>
<path d="M10.4545 12.3132C10.4545 12.4387 10.3528 12.5405 10.2273 12.5405C10.1018 12.5405 10 12.4387 10 12.3132C10 12.1877 10.1018 12.0859 10.2273 12.0859C10.3528 12.0859 10.4545 12.1877 10.4545 12.3132Z" fill="#572908"/>
<path d="M9.82955 13.5632C9.82955 13.6887 9.72779 13.7905 9.60227 13.7905C9.47675 13.7905 9.375 13.6887 9.375 13.5632C9.375 13.4377 9.47675 13.3359 9.60227 13.3359C9.72779 13.3359 9.82955 13.4377 9.82955 13.5632Z" fill="#572908"/>
<path d="M9.82955 15.0202C9.82955 15.1458 9.72779 15.2475 9.60227 15.2475C9.47675 15.2475 9.375 15.1458 9.375 15.0202C9.375 14.8947 9.47675 14.793 9.60227 14.793C9.72779 14.793 9.82955 14.8947 9.82955 15.0202Z" fill="#572908"/>
<path d="M11.0035 15.1351C11.0035 15.3024 10.8679 15.4381 10.7005 15.4381C10.5331 15.4381 10.3975 15.3024 10.3975 15.1351C10.3975 14.9677 10.5331 14.832 10.7005 14.832C10.8679 14.832 11.0035 14.9677 11.0035 15.1351Z" fill="#572908"/>
<path d="M10.4545 14.0906C10.4545 14.2161 10.3528 14.3178 10.2273 14.3178C10.1018 14.3178 10 14.2161 10 14.0906C10 13.965 10.1018 13.8633 10.2273 13.8633C10.3528 13.8633 10.4545 13.965 10.4545 14.0906Z" fill="#572908"/>
<path d="M11.9128 14.1483C11.9128 14.3575 11.7433 14.5271 11.5341 14.5271C11.3249 14.5271 11.1553 14.3575 11.1553 14.1483C11.1553 13.9391 11.3249 13.7695 11.5341 13.7695C11.7433 13.7695 11.9128 13.9391 11.9128 14.1483Z" fill="#572908"/>
<path d="M13.2576 12.0468C13.2576 12.256 13.088 12.4255 12.8788 12.4255C12.6696 12.4255 12.5 12.256 12.5 12.0468C12.5 11.8376 12.6696 11.668 12.8788 11.668C13.088 11.668 13.2576 11.8376 13.2576 12.0468Z" fill="#572908"/>
<path d="M12.8219 14.678C12.8219 14.8454 12.6862 14.9811 12.5189 14.9811C12.3515 14.9811 12.2158 14.8454 12.2158 14.678C12.2158 14.5107 12.3515 14.375 12.5189 14.375C12.6862 14.375 12.8219 14.5107 12.8219 14.678Z" fill="#572908"/>
<path fill-rule="evenodd" clip-rule="evenodd" d="M24.3702 15.021C24.3939 15.1336 24.3218 15.2441 24.2091 15.2677C23.4474 15.4276 22.8426 15.6186 22.4333 15.8256C22.2284 15.9293 22.083 16.0318 21.9913 16.1278C21.9006 16.223 21.8747 16.2983 21.8747 16.3553C21.8747 16.4101 21.8986 16.4816 21.9809 16.5716C22.0643 16.6627 22.1972 16.7606 22.3859 16.8604C22.7628 17.0598 23.322 17.2457 24.0306 17.4042C25.4443 17.7204 27.4075 17.9178 29.583 17.9178C31.7585 17.9178 33.7217 17.7204 35.1355 17.4042C35.844 17.2457 36.4032 17.0598 36.7801 16.8604C36.9688 16.7606 37.1017 16.6627 37.1851 16.5716C37.2674 16.4816 37.2913 16.4101 37.2913 16.3553C37.2913 16.2983 37.2654 16.223 37.1747 16.1278C37.0831 16.0318 36.9376 15.9293 36.7327 15.8256C36.3234 15.6186 35.7186 15.4276 34.9569 15.2677C34.8443 15.2441 34.7721 15.1336 34.7958 15.021C34.8194 14.9084 34.9299 14.8363 35.0425 14.86C35.8195 15.0231 36.4647 15.2232 36.9207 15.4538C37.1484 15.569 37.3395 15.6969 37.4762 15.8403C37.6138 15.9846 37.708 16.1576 37.708 16.3553C37.708 16.545 37.6211 16.7122 37.4926 16.8528C37.365 16.9922 37.1869 17.1167 36.9749 17.2287C36.5507 17.4531 35.9505 17.6488 35.2264 17.8108C33.7749 18.1355 31.7797 18.3345 29.583 18.3345C27.3863 18.3345 25.3911 18.1355 23.9396 17.8108C23.2155 17.6488 22.6153 17.4531 22.1911 17.2287C21.9791 17.1167 21.801 16.9922 21.6735 16.8528C21.5449 16.7122 21.458 16.545 21.458 16.3553C21.458 16.1576 21.5522 15.9846 21.6898 15.8403C21.8265 15.6969 22.0176 15.569 22.2453 15.4538C22.7013 15.2232 23.3465 15.0231 24.1235 14.86C24.2361 14.8363 24.3466 14.9084 24.3702 15.021Z" fill="#AC7349"/>
<path fill-rule="evenodd" clip-rule="evenodd" d="M35.7309 13.4841C35.673 13.3892 35.6554 13.2752 35.682 13.1673C35.7427 12.9211 35.7844 12.665 35.8084 12.4037C35.8196 12.2808 35.8847 12.1693 35.9862 12.0991C36.0876 12.0289 36.2149 12.0073 36.3338 12.04C36.4393 12.069 36.5507 12.0846 36.6665 12.0846C37.3568 12.0846 37.9165 11.525 37.9165 10.8346C37.9165 10.1443 37.3568 9.58464 36.6665 9.58464C36.5579 9.58464 36.4532 9.59837 36.3537 9.62399C36.2289 9.6561 36.0963 9.6287 35.9945 9.54978C35.8927 9.47086 35.8332 9.34929 35.8332 9.22048V8.3692C35.8332 8.16569 35.9802 7.99195 36.1809 7.95828C36.3391 7.93174 36.5013 7.91797 36.6665 7.91797C38.2773 7.91797 39.5832 9.2238 39.5832 10.8346C39.5832 12.4455 38.2773 13.7513 36.6665 13.7513C36.4342 13.7513 36.2077 13.7241 35.9903 13.6724C35.8822 13.6467 35.7888 13.5789 35.7309 13.4841ZM36.6362 12.501C36.4935 12.4985 36.3551 12.478 36.2233 12.4417C36.2104 12.5817 36.1928 12.7208 36.1702 12.8584C36.1522 12.9677 36.131 13.076 36.1065 13.1831C36.1001 13.2112 36.0935 13.2392 36.0866 13.267C36.2206 13.2989 36.3588 13.3199 36.5003 13.3292C36.5552 13.3328 36.6106 13.3346 36.6665 13.3346C38.0472 13.3346 39.1665 12.2153 39.1665 10.8346C39.1665 9.45392 38.0472 8.33464 36.6665 8.33464C36.5245 8.33464 36.3853 8.34647 36.2498 8.3692V9.22048C36.383 9.1862 36.5226 9.16797 36.6665 9.16797C37.587 9.16797 38.3332 9.91416 38.3332 10.8346C38.3332 11.7551 37.587 12.5013 36.6665 12.5013C36.6564 12.5013 36.6463 12.5012 36.6362 12.501Z" fill="#AC7349"/>
<path fill-rule="evenodd" clip-rule="evenodd" d="M23.1243 6.46094C23.2394 6.46094 23.3327 6.55421 23.3327 6.66927V11.8794C23.3327 13.3336 23.8356 14.7413 25.0957 15.4098C26.126 15.9563 27.6103 16.4609 29.5827 16.4609C31.555 16.4609 33.0394 15.9563 34.0696 15.4098C35.3297 14.7413 35.8327 13.3336 35.8327 11.8794V6.66927C35.8327 6.55421 35.926 6.46094 36.041 6.46094C36.1561 6.46094 36.2493 6.55421 36.2493 6.66927V11.8794C36.2493 13.4087 35.7192 15.0064 34.2649 15.7778C33.1802 16.3532 31.6293 16.8776 29.5827 16.8776C27.5361 16.8776 25.9852 16.3532 24.9005 15.7778C23.4461 15.0064 22.916 13.4087 22.916 11.8794V6.66927C22.916 6.55421 23.0093 6.46094 23.1243 6.46094Z" fill="#AC7349"/>
<path fill-rule="evenodd" clip-rule="evenodd" d="M23.75 7.66016V11.9668C23.75 13.0856 24.1202 14.2018 25.0642 14.8024C26.021 15.4111 27.5132 16.0437 29.5833 16.0437C31.6535 16.0437 33.1457 15.4111 34.1025 14.8024C35.0464 14.2018 35.4167 13.0856 35.4167 11.9668V7.66016C34.5138 7.93325 32.2425 8.127 29.5833 8.127C26.9242 8.127 24.6529 7.93325 23.75 7.66016Z" fill="#75370A"/>
<path d="M34.1018 14.8024C35.0458 14.2018 35.416 13.0856 35.416 11.9668V7.66016C34.9292 7.8074 34.0447 7.93157 32.916 8.01475V15.4151C33.3764 15.2261 33.7711 15.0128 34.1018 14.8024Z" fill="#572908"/>
<path d="M25.0642 14.8024C24.1202 14.2018 23.75 13.0856 23.75 11.9668V7.66016C24.1429 7.77898 24.7948 7.88279 25.625 7.96215V15.1254C25.421 15.0194 25.2341 14.9105 25.0642 14.8024Z" fill="#8E4917"/>
<path fill-rule="evenodd" clip-rule="evenodd" d="M34.0504 7.49326C32.8988 7.62761 31.3195 7.70964 29.5827 7.70964C27.8459 7.70964 26.2665 7.62761 25.115 7.49326C24.542 7.42641 24.0598 7.34494 23.713 7.24929C23.5429 7.20237 23.3812 7.14565 23.2533 7.07272C23.1894 7.03632 23.1141 6.98484 23.0507 6.91193C22.9849 6.83631 22.916 6.71809 22.916 6.5638C22.916 6.40951 22.9849 6.2913 23.0507 6.21568C23.1141 6.14276 23.1894 6.09129 23.2533 6.05488C23.3812 5.98195 23.5429 5.92524 23.713 5.87831C24.0598 5.78267 24.542 5.70119 25.115 5.63434C26.2665 5.5 27.8459 5.41797 29.5827 5.41797C31.3195 5.41797 32.8988 5.5 34.0504 5.63434C34.6233 5.70119 35.1056 5.78267 35.4523 5.87831C35.6224 5.92524 35.7842 5.98195 35.9121 6.05488C35.9759 6.09129 36.0512 6.14276 36.1147 6.21568C36.1805 6.2913 36.2493 6.40951 36.2493 6.5638C36.2493 6.71809 36.1805 6.83631 36.1147 6.91193C36.0512 6.98484 35.9759 7.03632 35.9121 7.07272C35.7842 7.14565 35.6224 7.20237 35.4523 7.24929C35.1056 7.34494 34.6233 7.42641 34.0504 7.49326ZM29.5827 7.29297C33.0345 7.29297 35.8327 6.96651 35.8327 6.5638C35.8327 6.16109 33.0345 5.83464 29.5827 5.83464C26.1309 5.83464 23.3327 6.16109 23.3327 6.5638C23.3327 6.96651 26.1309 7.29297 29.5827 7.29297Z" fill="#AC7349"/>
<path fill-rule="evenodd" clip-rule="evenodd" d="M24.5833 8.33594C24.6984 8.33594 24.7917 8.42921 24.7917 8.54427V9.79427C24.7917 9.90933 24.6984 10.0026 24.5833 10.0026C24.4683 10.0026 24.375 9.90933 24.375 9.79427V8.54427C24.375 8.42921 24.4683 8.33594 24.5833 8.33594Z" fill="white"/>
<path d="M35.4167 6.5638C35.4167 6.85145 32.805 7.08464 29.5833 7.08464C26.3617 7.08464 23.75 6.85145 23.75 6.5638C23.75 6.27615 26.3617 6.04297 29.5833 6.04297C32.805 6.04297 35.4167 6.27615 35.4167 6.5638Z" fill="#75370A"/>
<path d="M33.1246 13.6194C33.1246 13.7868 32.9889 13.9225 32.8216 13.9225C32.6542 13.9225 32.5186 13.7868 32.5186 13.6194C32.5186 13.4521 32.6542 13.3164 32.8216 13.3164C32.9889 13.3164 33.1246 13.4521 33.1246 13.6194Z" fill="#572908"/>
<path d="M32.2154 13.014C32.2154 13.1813 32.0798 13.317 31.9124 13.317C31.745 13.317 31.6094 13.1813 31.6094 13.014C31.6094 12.8466 31.745 12.7109 31.9124 12.7109C32.0798 12.7109 32.2154 12.8466 32.2154 13.014Z" fill="#572908"/>
<path d="M31.6481 12.178C31.6481 12.3454 31.5124 12.4811 31.345 12.4811C31.1777 12.4811 31.042 12.3454 31.042 12.178C31.042 12.0107 31.1777 11.875 31.345 11.875C31.5124 11.875 31.6481 12.0107 31.6481 12.178Z" fill="#572908"/>
<path d="M30.852 13.1843C30.852 13.3098 30.7503 13.4116 30.6247 13.4116C30.4992 13.4116 30.3975 13.3098 30.3975 13.1843C30.3975 13.0588 30.4992 12.957 30.6247 12.957C30.7503 12.957 30.852 13.0588 30.852 13.1843Z" fill="#572908"/>
<path d="M30.4545 12.3132C30.4545 12.4387 30.3528 12.5405 30.2273 12.5405C30.1018 12.5405 30 12.4387 30 12.3132C30 12.1877 30.1018 12.0859 30.2273 12.0859C30.3528 12.0859 30.4545 12.1877 30.4545 12.3132Z" fill="#572908"/>
<path d="M29.8295 13.5632C29.8295 13.6887 29.7278 13.7905 29.6023 13.7905C29.4768 13.7905 29.375 13.6887 29.375 13.5632C29.375 13.4377 29.4768 13.3359 29.6023 13.3359C29.7278 13.3359 29.8295 13.4377 29.8295 13.5632Z" fill="#572908"/>
<path d="M29.8295 15.0202C29.8295 15.1458 29.7278 15.2475 29.6023 15.2475C29.4768 15.2475 29.375 15.1458 29.375 15.0202C29.375 14.8947 29.4768 14.793 29.6023 14.793C29.7278 14.793 29.8295 14.8947 29.8295 15.0202Z" fill="#572908"/>
<path d="M31.0035 15.1351C31.0035 15.3024 30.8679 15.4381 30.7005 15.4381C30.5331 15.4381 30.3975 15.3024 30.3975 15.1351C30.3975 14.9677 30.5331 14.832 30.7005 14.832C30.8679 14.832 31.0035 14.9677 31.0035 15.1351Z" fill="#572908"/>
<path d="M30.4545 14.0906C30.4545 14.2161 30.3528 14.3178 30.2273 14.3178C30.1018 14.3178 30 14.2161 30 14.0906C30 13.965 30.1018 13.8633 30.2273 13.8633C30.3528 13.8633 30.4545 13.965 30.4545 14.0906Z" fill="#572908"/>
<path d="M31.9128 14.1483C31.9128 14.3575 31.7433 14.5271 31.5341 14.5271C31.3249 14.5271 31.1553 14.3575 31.1553 14.1483C31.1553 13.9391 31.3249 13.7695 31.5341 13.7695C31.7433 13.7695 31.9128 13.9391 31.9128 14.1483Z" fill="#572908"/>
<path d="M33.2576 12.0468C33.2576 12.256 33.088 12.4255 32.8788 12.4255C32.6696 12.4255 32.5 12.256 32.5 12.0468C32.5 11.8376 32.6696 11.668 32.8788 11.668C33.088 11.668 33.2576 11.8376 33.2576 12.0468Z" fill="#572908"/>
<path d="M32.8219 14.678C32.8219 14.8454 32.6862 14.9811 32.5189 14.9811C32.3515 14.9811 32.2158 14.8454 32.2158 14.678C32.2158 14.5107 32.3515 14.375 32.5189 14.375C32.6862 14.375 32.8219 14.5107 32.8219 14.678Z" fill="#572908"/>
<path fill-rule="evenodd" clip-rule="evenodd" d="M44.3702 15.021C44.3939 15.1336 44.3218 15.2441 44.2091 15.2677C43.4474 15.4276 42.8426 15.6186 42.4333 15.8256C42.2284 15.9293 42.083 16.0318 41.9913 16.1278C41.9006 16.223 41.8747 16.2983 41.8747 16.3553C41.8747 16.4101 41.8986 16.4816 41.9809 16.5716C42.0643 16.6627 42.1972 16.7606 42.3859 16.8604C42.7628 17.0598 43.322 17.2457 44.0306 17.4042C45.4443 17.7204 47.4075 17.9178 49.583 17.9178C51.7585 17.9178 53.7217 17.7204 55.1355 17.4042C55.844 17.2457 56.4032 17.0598 56.7801 16.8604C56.9688 16.7606 57.1017 16.6627 57.1851 16.5716C57.2674 16.4816 57.2913 16.4101 57.2913 16.3553C57.2913 16.2983 57.2654 16.223 57.1747 16.1278C57.0831 16.0318 56.9376 15.9293 56.7327 15.8256C56.3234 15.6186 55.7186 15.4276 54.9569 15.2677C54.8443 15.2441 54.7721 15.1336 54.7958 15.021C54.8194 14.9084 54.9299 14.8363 55.0425 14.86C55.8195 15.0231 56.4647 15.2232 56.9207 15.4538C57.1484 15.569 57.3395 15.6969 57.4762 15.8403C57.6138 15.9846 57.708 16.1576 57.708 16.3553C57.708 16.545 57.6211 16.7122 57.4926 16.8528C57.365 16.9922 57.1869 17.1167 56.9749 17.2287C56.5507 17.4531 55.9505 17.6488 55.2264 17.8108C53.7749 18.1355 51.7797 18.3345 49.583 18.3345C47.3863 18.3345 45.3911 18.1355 43.9396 17.8108C43.2155 17.6488 42.6153 17.4531 42.1911 17.2287C41.9791 17.1167 41.801 16.9922 41.6735 16.8528C41.5449 16.7122 41.458 16.545 41.458 16.3553C41.458 16.1576 41.5522 15.9846 41.6898 15.8403C41.8265 15.6969 42.0176 15.569 42.2453 15.4538C42.7013 15.2232 43.3465 15.0231 44.1235 14.86C44.2361 14.8363 44.3466 14.9084 44.3702 15.021Z" fill="#AC7349"/>
<path fill-rule="evenodd" clip-rule="evenodd" d="M55.7309 13.4841C55.673 13.3892 55.6554 13.2752 55.682 13.1673C55.7427 12.9211 55.7844 12.665 55.8084 12.4037C55.8196 12.2808 55.8847 12.1693 55.9862 12.0991C56.0876 12.0289 56.2149 12.0073 56.3338 12.04C56.4393 12.069 56.5507 12.0846 56.6665 12.0846C57.3568 12.0846 57.9165 11.525 57.9165 10.8346C57.9165 10.1443 57.3568 9.58464 56.6665 9.58464C56.5579 9.58464 56.4532 9.59837 56.3537 9.62399C56.2289 9.6561 56.0963 9.6287 55.9945 9.54978C55.8927 9.47086 55.8332 9.34929 55.8332 9.22048V8.3692C55.8332 8.16569 55.9802 7.99195 56.1809 7.95828C56.3391 7.93174 56.5013 7.91797 56.6665 7.91797C58.2773 7.91797 59.5832 9.2238 59.5832 10.8346C59.5832 12.4455 58.2773 13.7513 56.6665 13.7513C56.4342 13.7513 56.2077 13.7241 55.9903 13.6724C55.8822 13.6467 55.7888 13.5789 55.7309 13.4841ZM56.6362 12.501C56.4935 12.4985 56.3551 12.478 56.2233 12.4417C56.2104 12.5817 56.1928 12.7208 56.1702 12.8584C56.1522 12.9677 56.131 13.076 56.1065 13.1831C56.1001 13.2112 56.0935 13.2392 56.0866 13.267C56.2206 13.2989 56.3588 13.3199 56.5003 13.3292C56.5552 13.3328 56.6106 13.3346 56.6665 13.3346C58.0472 13.3346 59.1665 12.2153 59.1665 10.8346C59.1665 9.45392 58.0472 8.33464 56.6665 8.33464C56.5245 8.33464 56.3853 8.34647 56.2498 8.3692V9.22048C56.383 9.1862 56.5226 9.16797 56.6665 9.16797C57.587 9.16797 58.3332 9.91416 58.3332 10.8346C58.3332 11.7551 57.587 12.5013 56.6665 12.5013C56.6564 12.5013 56.6463 12.5012 56.6362 12.501Z" fill="#AC7349"/>
<path fill-rule="evenodd" clip-rule="evenodd" d="M43.1243 6.46094C43.2394 6.46094 43.3327 6.55421 43.3327 6.66927V11.8794C43.3327 13.3336 43.8356 14.7413 45.0957 15.4098C46.126 15.9563 47.6103 16.4609 49.5827 16.4609C51.555 16.4609 53.0394 15.9563 54.0696 15.4098C55.3297 14.7413 55.8327 13.3336 55.8327 11.8794V6.66927C55.8327 6.55421 55.926 6.46094 56.041 6.46094C56.1561 6.46094 56.2493 6.55421 56.2493 6.66927V11.8794C56.2493 13.4087 55.7192 15.0064 54.2649 15.7778C53.1802 16.3532 51.6293 16.8776 49.5827 16.8776C47.5361 16.8776 45.9852 16.3532 44.9005 15.7778C43.4461 15.0064 42.916 13.4087 42.916 11.8794V6.66927C42.916 6.55421 43.0093 6.46094 43.1243 6.46094Z" fill="#AC7349"/>
<path fill-rule="evenodd" clip-rule="evenodd" d="M43.75 7.66016V11.9668C43.75 13.0856 44.1202 14.2018 45.0642 14.8024C46.021 15.4111 47.5132 16.0437 49.5833 16.0437C51.6535 16.0437 53.1457 15.4111 54.1025 14.8024C55.0464 14.2018 55.4167 13.0856 55.4167 11.9668V7.66016C54.5138 7.93325 52.2425 8.127 49.5833 8.127C46.9242 8.127 44.6529 7.93325 43.75 7.66016Z" fill="#75370A"/>
<path d="M54.1018 14.8024C55.0458 14.2018 55.416 13.0856 55.416 11.9668V7.66016C54.9292 7.8074 54.0447 7.93157 52.916 8.01475V15.4151C53.3764 15.2261 53.7711 15.0128 54.1018 14.8024Z" fill="#572908"/>
<path d="M45.0642 14.8024C44.1202 14.2018 43.75 13.0856 43.75 11.9668V7.66016C44.1429 7.77898 44.7948 7.88279 45.625 7.96215V15.1254C45.421 15.0194 45.2341 14.9105 45.0642 14.8024Z" fill="#8E4917"/>
<path fill-rule="evenodd" clip-rule="evenodd" d="M54.0504 7.49326C52.8988 7.62761 51.3195 7.70964 49.5827 7.70964C47.8459 7.70964 46.2665 7.62761 45.115 7.49326C44.542 7.42641 44.0598 7.34494 43.713 7.24929C43.5429 7.20237 43.3812 7.14565 43.2533 7.07272C43.1894 7.03632 43.1141 6.98484 43.0507 6.91193C42.9849 6.83631 42.916 6.71809 42.916 6.5638C42.916 6.40951 42.9849 6.2913 43.0507 6.21568C43.1141 6.14276 43.1894 6.09129 43.2533 6.05488C43.3812 5.98195 43.5429 5.92524 43.713 5.87831C44.0598 5.78267 44.542 5.70119 45.115 5.63434C46.2665 5.5 47.8459 5.41797 49.5827 5.41797C51.3195 5.41797 52.8988 5.5 54.0504 5.63434C54.6233 5.70119 55.1056 5.78267 55.4523 5.87831C55.6224 5.92524 55.7842 5.98195 55.9121 6.05488C55.9759 6.09129 56.0512 6.14276 56.1147 6.21568C56.1805 6.2913 56.2493 6.40951 56.2493 6.5638C56.2493 6.71809 56.1805 6.83631 56.1147 6.91193C56.0512 6.98484 55.9759 7.03632 55.9121 7.07272C55.7842 7.14565 55.6224 7.20237 55.4523 7.24929C55.1056 7.34494 54.6233 7.42641 54.0504 7.49326ZM49.5827 7.29297C53.0345 7.29297 55.8327 6.96651 55.8327 6.5638C55.8327 6.16109 53.0345 5.83464 49.5827 5.83464C46.1309 5.83464 43.3327 6.16109 43.3327 6.5638C43.3327 6.96651 46.1309 7.29297 49.5827 7.29297Z" fill="#AC7349"/>
<path fill-rule="evenodd" clip-rule="evenodd" d="M44.5833 8.33594C44.6984 8.33594 44.7917 8.42921 44.7917 8.54427V9.79427C44.7917 9.90933 44.6984 10.0026 44.5833 10.0026C44.4683 10.0026 44.375 9.90933 44.375 9.79427V8.54427C44.375 8.42921 44.4683 8.33594 44.5833 8.33594Z" fill="white"/>
<path d="M55.4167 6.5638C55.4167 6.85145 52.805 7.08464 49.5833 7.08464C46.3617 7.08464 43.75 6.85145 43.75 6.5638C43.75 6.27615 46.3617 6.04297 49.5833 6.04297C52.805 6.04297 55.4167 6.27615 55.4167 6.5638Z" fill="#75370A"/>
<path d="M53.1246 13.6194C53.1246 13.7868 52.9889 13.9225 52.8216 13.9225C52.6542 13.9225 52.5186 13.7868 52.5186 13.6194C52.5186 13.4521 52.6542 13.3164 52.8216 13.3164C52.9889 13.3164 53.1246 13.4521 53.1246 13.6194Z" fill="#572908"/>
<path d="M52.2154 13.014C52.2154 13.1813 52.0798 13.317 51.9124 13.317C51.745 13.317 51.6094 13.1813 51.6094 13.014C51.6094 12.8466 51.745 12.7109 51.9124 12.7109C52.0798 12.7109 52.2154 12.8466 52.2154 13.014Z" fill="#572908"/>
<path d="M51.6481 12.178C51.6481 12.3454 51.5124 12.4811 51.345 12.4811C51.1777 12.4811 51.042 12.3454 51.042 12.178C51.042 12.0107 51.1777 11.875 51.345 11.875C51.5124 11.875 51.6481 12.0107 51.6481 12.178Z" fill="#572908"/>
<path d="M50.852 13.1843C50.852 13.3098 50.7503 13.4116 50.6247 13.4116C50.4992 13.4116 50.3975 13.3098 50.3975 13.1843C50.3975 13.0588 50.4992 12.957 50.6247 12.957C50.7503 12.957 50.852 13.0588 50.852 13.1843Z" fill="#572908"/>
<path d="M50.4545 12.3132C50.4545 12.4387 50.3528 12.5405 50.2273 12.5405C50.1018 12.5405 50 12.4387 50 12.3132C50 12.1877 50.1018 12.0859 50.2273 12.0859C50.3528 12.0859 50.4545 12.1877 50.4545 12.3132Z" fill="#572908"/>
<path d="M49.8295 13.5632C49.8295 13.6887 49.7278 13.7905 49.6023 13.7905C49.4768 13.7905 49.375 13.6887 49.375 13.5632C49.375 13.4377 49.4768 13.3359 49.6023 13.3359C49.7278 13.3359 49.8295 13.4377 49.8295 13.5632Z" fill="#572908"/>
<path d="M49.8295 15.0202C49.8295 15.1458 49.7278 15.2475 49.6023 15.2475C49.4768 15.2475 49.375 15.1458 49.375 15.0202C49.375 14.8947 49.4768 14.793 49.6023 14.793C49.7278 14.793 49.8295 14.8947 49.8295 15.0202Z" fill="#572908"/>
<path d="M51.0035 15.1351C51.0035 15.3024 50.8679 15.4381 50.7005 15.4381C50.5331 15.4381 50.3975 15.3024 50.3975 15.1351C50.3975 14.9677 50.5331 14.832 50.7005 14.832C50.8679 14.832 51.0035 14.9677 51.0035 15.1351Z" fill="#572908"/>
<path d="M50.4545 14.0906C50.4545 14.2161 50.3528 14.3178 50.2273 14.3178C50.1018 14.3178 50 14.2161 50 14.0906C50 13.965 50.1018 13.8633 50.2273 13.8633C50.3528 13.8633 50.4545 13.965 50.4545 14.0906Z" fill="#572908"/>
<path d="M51.9128 14.1483C51.9128 14.3575 51.7433 14.5271 51.5341 14.5271C51.3249 14.5271 51.1553 14.3575 51.1553 14.1483C51.1553 13.9391 51.3249 13.7695 51.5341 13.7695C51.7433 13.7695 51.9128 13.9391 51.9128 14.1483Z" fill="#572908"/>
<path d="M53.2576 12.0468C53.2576 12.256 53.088 12.4255 52.8788 12.4255C52.6696 12.4255 52.5 12.256 52.5 12.0468C52.5 11.8376 52.6696 11.668 52.8788 11.668C53.088 11.668 53.2576 11.8376 53.2576 12.0468Z" fill="#572908"/>
<path d="M52.8219 14.678C52.8219 14.8454 52.6862 14.9811 52.5189 14.9811C52.3515 14.9811 52.2158 14.8454 52.2158 14.678C52.2158 14.5107 52.3515 14.375 52.5189 14.375C52.6862 14.375 52.8219 14.5107 52.8219 14.678Z" fill="#572908"/>
<path fill-rule="evenodd" clip-rule="evenodd" d="M64.3702 15.021C64.3939 15.1336 64.3218 15.2441 64.2091 15.2677C63.4474 15.4276 62.8426 15.6186 62.4333 15.8256C62.2284 15.9293 62.083 16.0318 61.9913 16.1278C61.9006 16.223 61.8747 16.2983 61.8747 16.3553C61.8747 16.4101 61.8986 16.4816 61.9809 16.5716C62.0643 16.6627 62.1972 16.7606 62.3859 16.8604C62.7628 17.0598 63.322 17.2457 64.0306 17.4042C65.4443 17.7204 67.4075 17.9178 69.583 17.9178C71.7585 17.9178 73.7217 17.7204 75.1355 17.4042C75.844 17.2457 76.4032 17.0598 76.7801 16.8604C76.9688 16.7606 77.1017 16.6627 77.1851 16.5716C77.2674 16.4816 77.2913 16.4101 77.2913 16.3553C77.2913 16.2983 77.2654 16.223 77.1747 16.1278C77.0831 16.0318 76.9376 15.9293 76.7327 15.8256C76.3234 15.6186 75.7186 15.4276 74.9569 15.2677C74.8443 15.2441 74.7721 15.1336 74.7958 15.021C74.8194 14.9084 74.9299 14.8363 75.0425 14.86C75.8195 15.0231 76.4647 15.2232 76.9207 15.4538C77.1484 15.569 77.3395 15.6969 77.4762 15.8403C77.6138 15.9846 77.708 16.1576 77.708 16.3553C77.708 16.545 77.6211 16.7122 77.4926 16.8528C77.365 16.9922 77.1869 17.1167 76.9749 17.2287C76.5507 17.4531 75.9505 17.6488 75.2264 17.8108C73.7749 18.1355 71.7797 18.3345 69.583 18.3345C67.3863 18.3345 65.3911 18.1355 63.9396 17.8108C63.2155 17.6488 62.6153 17.4531 62.1911 17.2287C61.9791 17.1167 61.801 16.9922 61.6735 16.8528C61.5449 16.7122 61.458 16.545 61.458 16.3553C61.458 16.1576 61.5522 15.9846 61.6898 15.8403C61.8265 15.6969 62.0176 15.569 62.2453 15.4538C62.7013 15.2232 63.3465 15.0231 64.1235 14.86C64.2361 14.8363 64.3466 14.9084 64.3702 15.021Z" fill="#AC7349"/>
<path fill-rule="evenodd" clip-rule="evenodd" d="M75.7309 13.4841C75.673 13.3892 75.6554 13.2752 75.682 13.1673C75.7427 12.9211 75.7844 12.665 75.8084 12.4037C75.8196 12.2808 75.8847 12.1693 75.9862 12.0991C76.0876 12.0289 76.2149 12.0073 76.3338 12.04C76.4393 12.069 76.5507 12.0846 76.6665 12.0846C77.3568 12.0846 77.9165 11.525 77.9165 10.8346C77.9165 10.1443 77.3568 9.58464 76.6665 9.58464C76.5579 9.58464 76.4532 9.59837 76.3537 9.62399C76.2289 9.6561 76.0963 9.6287 75.9945 9.54978C75.8927 9.47086 75.8332 9.34929 75.8332 9.22048V8.3692C75.8332 8.16569 75.9802 7.99195 76.1809 7.95828C76.3391 7.93174 76.5013 7.91797 76.6665 7.91797C78.2773 7.91797 79.5832 9.2238 79.5832 10.8346C79.5832 12.4455 78.2773 13.7513 76.6665 13.7513C76.4342 13.7513 76.2077 13.7241 75.9903 13.6724C75.8822 13.6467 75.7888 13.5789 75.7309 13.4841ZM76.6362 12.501C76.4935 12.4985 76.3551 12.478 76.2233 12.4417C76.2104 12.5817 76.1928 12.7208 76.1702 12.8584C76.1522 12.9677 76.131 13.076 76.1065 13.1831C76.1001 13.2112 76.0935 13.2392 76.0866 13.267C76.2206 13.2989 76.3588 13.3199 76.5003 13.3292C76.5552 13.3328 76.6106 13.3346 76.6665 13.3346C78.0472 13.3346 79.1665 12.2153 79.1665 10.8346C79.1665 9.45392 78.0472 8.33464 76.6665 8.33464C76.5245 8.33464 76.3853 8.34647 76.2498 8.3692V9.22048C76.383 9.1862 76.5226 9.16797 76.6665 9.16797C77.587 9.16797 78.3332 9.91416 78.3332 10.8346C78.3332 11.7551 77.587 12.5013 76.6665 12.5013C76.6564 12.5013 76.6463 12.5012 76.6362 12.501Z" fill="#AC7349"/>
<path fill-rule="evenodd" clip-rule="evenodd" d="M63.1243 6.46094C63.2394 6.46094 63.3327 6.55421 63.3327 6.66927V11.8794C63.3327 13.3336 63.8356 14.7413 65.0957 15.4098C66.126 15.9563 67.6103 16.4609 69.5827 16.4609C71.555 16.4609 73.0394 15.9563 74.0696 15.4098C75.3297 14.7413 75.8327 13.3336 75.8327 11.8794V6.66927C75.8327 6.55421 75.926 6.46094 76.041 6.46094C76.1561 6.46094 76.2493 6.55421 76.2493 6.66927V11.8794C76.2493 13.4087 75.7192 15.0064 74.2649 15.7778C73.1802 16.3532 71.6293 16.8776 69.5827 16.8776C67.5361 16.8776 65.9852 16.3532 64.9005 15.7778C63.4461 15.0064 62.916 13.4087 62.916 11.8794V6.66927C62.916 6.55421 63.0093 6.46094 63.1243 6.46094Z" fill="#AC7349"/>
<path fill-rule="evenodd" clip-rule="evenodd" d="M63.75 7.66016V11.9668C63.75 13.0856 64.1202 14.2018 65.0642 14.8024C66.021 15.4111 67.5132 16.0437 69.5833 16.0437C71.6535 16.0437 73.1457 15.4111 74.1025 14.8024C75.0464 14.2018 75.4167 13.0856 75.4167 11.9668V7.66016C74.5138 7.93325 72.2425 8.127 69.5833 8.127C66.9242 8.127 64.6529 7.93325 63.75 7.66016Z" fill="#75370A"/>
<path d="M74.1018 14.8024C75.0458 14.2018 75.416 13.0856 75.416 11.9668V7.66016C74.9292 7.8074 74.0447 7.93157 72.916 8.01475V15.4151C73.3764 15.2261 73.7711 15.0128 74.1018 14.8024Z" fill="#572908"/>
<path d="M65.0642 14.8024C64.1202 14.2018 63.75 13.0856 63.75 11.9668V7.66016C64.1429 7.77898 64.7948 7.88279 65.625 7.96215V15.1254C65.421 15.0194 65.2341 14.9105 65.0642 14.8024Z" fill="#8E4917"/>
<path fill-rule="evenodd" clip-rule="evenodd" d="M74.0504 7.49326C72.8988 7.62761 71.3195 7.70964 69.5827 7.70964C67.8459 7.70964 66.2665 7.62761 65.115 7.49326C64.542 7.42641 64.0598 7.34494 63.713 7.24929C63.5429 7.20237 63.3812 7.14565 63.2533 7.07272C63.1894 7.03632 63.1141 6.98484 63.0507 6.91193C62.9849 6.83631 62.916 6.71809 62.916 6.5638C62.916 6.40951 62.9849 6.2913 63.0507 6.21568C63.1141 6.14276 63.1894 6.09129 63.2533 6.05488C63.3812 5.98195 63.5429 5.92524 63.713 5.87831C64.0598 5.78267 64.542 5.70119 65.115 5.63434C66.2665 5.5 67.8459 5.41797 69.5827 5.41797C71.3195 5.41797 72.8988 5.5 74.0504 5.63434C74.6233 5.70119 75.1056 5.78267 75.4523 5.87831C75.6224 5.92524 75.7842 5.98195 75.9121 6.05488C75.9759 6.09129 76.0512 6.14276 76.1147 6.21568C76.1805 6.2913 76.2493 6.40951 76.2493 6.5638C76.2493 6.71809 76.1805 6.83631 76.1147 6.91193C76.0512 6.98484 75.9759 7.03632 75.9121 7.07272C75.7842 7.14565 75.6224 7.20237 75.4523 7.24929C75.1056 7.34494 74.6233 7.42641 74.0504 7.49326ZM69.5827 7.29297C73.0345 7.29297 75.8327 6.96651 75.8327 6.5638C75.8327 6.16109 73.0345 5.83464 69.5827 5.83464C66.1309 5.83464 63.3327 6.16109 63.3327 6.5638C63.3327 6.96651 66.1309 7.29297 69.5827 7.29297Z" fill="#AC7349"/>
<path fill-rule="evenodd" clip-rule="evenodd" d="M64.5833 8.33594C64.6984 8.33594 64.7917 8.42921 64.7917 8.54427V9.79427C64.7917 9.90933 64.6984 10.0026 64.5833 10.0026C64.4683 10.0026 64.375 9.90933 64.375 9.79427V8.54427C64.375 8.42921 64.4683 8.33594 64.5833 8.33594Z" fill="white"/>
<path d="M75.4167 6.5638C75.4167 6.85145 72.805 7.08464 69.5833 7.08464C66.3617 7.08464 63.75 6.85145 63.75 6.5638C63.75 6.27615 66.3617 6.04297 69.5833 6.04297C72.805 6.04297 75.4167 6.27615 75.4167 6.5638Z" fill="#75370A"/>
<path d="M73.1246 13.6194C73.1246 13.7868 72.9889 13.9225 72.8216 13.9225C72.6542 13.9225 72.5186 13.7868 72.5186 13.6194C72.5186 13.4521 72.6542 13.3164 72.8216 13.3164C72.9889 13.3164 73.1246 13.4521 73.1246 13.6194Z" fill="#572908"/>
<path d="M72.2154 13.014C72.2154 13.1813 72.0798 13.317 71.9124 13.317C71.745 13.317 71.6094 13.1813 71.6094 13.014C71.6094 12.8466 71.745 12.7109 71.9124 12.7109C72.0798 12.7109 72.2154 12.8466 72.2154 13.014Z" fill="#572908"/>
<path d="M71.6481 12.178C71.6481 12.3454 71.5124 12.4811 71.345 12.4811C71.1777 12.4811 71.042 12.3454 71.042 12.178C71.042 12.0107 71.1777 11.875 71.345 11.875C71.5124 11.875 71.6481 12.0107 71.6481 12.178Z" fill="#572908"/>
<path d="M70.852 13.1843C70.852 13.3098 70.7503 13.4116 70.6247 13.4116C70.4992 13.4116 70.3975 13.3098 70.3975 13.1843C70.3975 13.0588 70.4992 12.957 70.6247 12.957C70.7503 12.957 70.852 13.0588 70.852 13.1843Z" fill="#572908"/>
<path d="M70.4545 12.3132C70.4545 12.4387 70.3528 12.5405 70.2273 12.5405C70.1018 12.5405 70 12.4387 70 12.3132C70 12.1877 70.1018 12.0859 70.2273 12.0859C70.3528 12.0859 70.4545 12.1877 70.4545 12.3132Z" fill="#572908"/>
<path d="M69.8295 13.5632C69.8295 13.6887 69.7278 13.7905 69.6023 13.7905C69.4768 13.7905 69.375 13.6887 69.375 13.5632C69.375 13.4377 69.4768 13.3359 69.6023 13.3359C69.7278 13.3359 69.8295 13.4377 69.8295 13.5632Z" fill="#572908"/>
<path d="M69.8295 15.0202C69.8295 15.1458 69.7278 15.2475 69.6023 15.2475C69.4768 15.2475 69.375 15.1458 69.375 15.0202C69.375 14.8947 69.4768 14.793 69.6023 14.793C69.7278 14.793 69.8295 14.8947 69.8295 15.0202Z" fill="#572908"/>
<path d="M71.0035 15.1351C71.0035 15.3024 70.8679 15.4381 70.7005 15.4381C70.5331 15.4381 70.3975 15.3024 70.3975 15.1351C70.3975 14.9677 70.5331 14.832 70.7005 14.832C70.8679 14.832 71.0035 14.9677 71.0035 15.1351Z" fill="#572908"/>
<path d="M70.4545 14.0906C70.4545 14.2161 70.3528 14.3178 70.2273 14.3178C70.1018 14.3178 70 14.2161 70 14.0906C70 13.965 70.1018 13.8633 70.2273 13.8633C70.3528 13.8633 70.4545 13.965 70.4545 14.0906Z" fill="#572908"/>
<path d="M71.9128 14.1483C71.9128 14.3575 71.7433 14.5271 71.5341 14.5271C71.3249 14.5271 71.1553 14.3575 71.1553 14.1483C71.1553 13.9391 71.3249 13.7695 71.5341 13.7695C71.7433 13.7695 71.9128 13.9391 71.9128 14.1483Z" fill="#572908"/>
<path d="M73.2576 12.0468C73.2576 12.256 73.088 12.4255 72.8788 12.4255C72.6696 12.4255 72.5 12.256 72.5 12.0468C72.5 11.8376 72.6696 11.668 72.8788 11.668C73.088 11.668 73.2576 11.8376 73.2576 12.0468Z" fill="#572908"/>
<path d="M72.8219 14.678C72.8219 14.8454 72.6862 14.9811 72.5189 14.9811C72.3515 14.9811 72.2158 14.8454 72.2158 14.678C72.2158 14.5107 72.3515 14.375 72.5189 14.375C72.6862 14.375 72.8219 14.5107 72.8219 14.678Z" fill="#572908"/>
<path fill-rule="evenodd" clip-rule="evenodd" d="M84.3702 15.021C84.3939 15.1336 84.3218 15.2441 84.2091 15.2677C83.4474 15.4276 82.8426 15.6186 82.4333 15.8256C82.2284 15.9293 82.083 16.0318 81.9913 16.1278C81.9006 16.223 81.8747 16.2983 81.8747 16.3553C81.8747 16.4101 81.8986 16.4816 81.9809 16.5716C82.0643 16.6627 82.1972 16.7606 82.3859 16.8604C82.7628 17.0598 83.322 17.2457 84.0306 17.4042C85.4443 17.7204 87.4075 17.9178 89.583 17.9178C91.7585 17.9178 93.7217 17.7204 95.1355 17.4042C95.844 17.2457 96.4032 17.0598 96.7801 16.8604C96.9688 16.7606 97.1017 16.6627 97.1851 16.5716C97.2674 16.4816 97.2913 16.4101 97.2913 16.3553C97.2913 16.2983 97.2654 16.223 97.1747 16.1278C97.0831 16.0318 96.9376 15.9293 96.7327 15.8256C96.3234 15.6186 95.7186 15.4276 94.9569 15.2677C94.8443 15.2441 94.7721 15.1336 94.7958 15.021C94.8194 14.9084 94.9299 14.8363 95.0425 14.86C95.8195 15.0231 96.4647 15.2232 96.9207 15.4538C97.1484 15.569 97.3395 15.6969 97.4762 15.8403C97.6138 15.9846 97.708 16.1576 97.708 16.3553C97.708 16.545 97.6211 16.7122 97.4926 16.8528C97.365 16.9922 97.1869 17.1167 96.9749 17.2287C96.5507 17.4531 95.9505 17.6488 95.2264 17.8108C93.7749 18.1355 91.7797 18.3345 89.583 18.3345C87.3863 18.3345 85.3911 18.1355 83.9396 17.8108C83.2155 17.6488 82.6153 17.4531 82.1911 17.2287C81.9791 17.1167 81.801 16.9922 81.6735 16.8528C81.5449 16.7122 81.458 16.545 81.458 16.3553C81.458 16.1576 81.5522 15.9846 81.6898 15.8403C81.8265 15.6969 82.0176 15.569 82.2453 15.4538C82.7013 15.2232 83.3465 15.0231 84.1235 14.86C84.2361 14.8363 84.3466 14.9084 84.3702 15.021Z" fill="#AC7349"/>
<path fill-rule="evenodd" clip-rule="evenodd" d="M95.7309 13.4841C95.673 13.3892 95.6554 13.2752 95.682 13.1673C95.7427 12.9211 95.7844 12.665 95.8084 12.4037C95.8196 12.2808 95.8847 12.1693 95.9862 12.0991C96.0876 12.0289 96.2149 12.0073 96.3338 12.04C96.4393 12.069 96.5507 12.0846 96.6665 12.0846C97.3568 12.0846 97.9165 11.525 97.9165 10.8346C97.9165 10.1443 97.3568 9.58464 96.6665 9.58464C96.5579 9.58464 96.4532 9.59837 96.3537 9.62399C96.2289 9.6561 96.0963 9.6287 95.9945 9.54978C95.8927 9.47086 95.8332 9.34929 95.8332 9.22048V8.3692C95.8332 8.16569 95.9802 7.99195 96.1809 7.95828C96.3391 7.93174 96.5013 7.91797 96.6665 7.91797C98.2773 7.91797 99.5832 9.2238 99.5832 10.8346C99.5832 12.4455 98.2773 13.7513 96.6665 13.7513C96.4342 13.7513 96.2077 13.7241 95.9903 13.6724C95.8822 13.6467 95.7888 13.5789 95.7309 13.4841ZM96.6362 12.501C96.4935 12.4985 96.3551 12.478 96.2233 12.4417C96.2104 12.5817 96.1928 12.7208 96.1702 12.8584C96.1522 12.9677 96.131 13.076 96.1065 13.1831C96.1001 13.2112 96.0935 13.2392 96.0866 13.267C96.2206 13.2989 96.3588 13.3199 96.5003 13.3292C96.5552 13.3328 96.6106 13.3346 96.6665 13.3346C98.0472 13.3346 99.1665 12.2153 99.1665 10.8346C99.1665 9.45392 98.0472 8.33464 96.6665 8.33464C96.5245 8.33464 96.3853 8.34647 96.2498 8.3692V9.22048C96.383 9.1862 96.5226 9.16797 96.6665 9.16797C97.587 9.16797 98.3332 9.91416 98.3332 10.8346C98.3332 11.7551 97.587 12.5013 96.6665 12.5013C96.6564 12.5013 96.6463 12.5012 96.6362 12.501Z" fill="#AC7349"/>
<path fill-rule="evenodd" clip-rule="evenodd" d="M83.1243 6.46094C83.2394 6.46094 83.3327 6.55421 83.3327 6.66927V11.8794C83.3327 13.3336 83.8356 14.7413 85.0957 15.4098C86.126 15.9563 87.6103 16.4609 89.5827 16.4609C91.555 16.4609 93.0394 15.9563 94.0696 15.4098C95.3297 14.7413 95.8327 13.3336 95.8327 11.8794V6.66927C95.8327 6.55421 95.926 6.46094 96.041 6.46094C96.1561 6.46094 96.2493 6.55421 96.2493 6.66927V11.8794C96.2493 13.4087 95.7192 15.0064 94.2649 15.7778C93.1802 16.3532 91.6293 16.8776 89.5827 16.8776C87.5361 16.8776 85.9852 16.3532 84.9005 15.7778C83.4461 15.0064 82.916 13.4087 82.916 11.8794V6.66927C82.916 6.55421 83.0093 6.46094 83.1243 6.46094Z" fill="#AC7349"/>
<path fill-rule="evenodd" clip-rule="evenodd" d="M83.75 7.66016V11.9668C83.75 13.0856 84.1202 14.2018 85.0642 14.8024C86.021 15.4111 87.5132 16.0437 89.5833 16.0437C91.6535 16.0437 93.1457 15.4111 94.1025 14.8024C95.0464 14.2018 95.4167 13.0856 95.4167 11.9668V7.66016C94.5138 7.93325 92.2425 8.127 89.5833 8.127C86.9242 8.127 84.6529 7.93325 83.75 7.66016Z" fill="#75370A"/>
<path d="M94.1018 14.8024C95.0458 14.2018 95.416 13.0856 95.416 11.9668V7.66016C94.9292 7.8074 94.0447 7.93157 92.916 8.01475V15.4151C93.3764 15.2261 93.7711 15.0128 94.1018 14.8024Z" fill="#572908"/>
<path d="M85.0642 14.8024C84.1202 14.2018 83.75 13.0856 83.75 11.9668V7.66016C84.1429 7.77898 84.7948 7.88279 85.625 7.96215V15.1254C85.421 15.0194 85.2341 14.9105 85.0642 14.8024Z" fill="#8E4917"/>
<path fill-rule="evenodd" clip-rule="evenodd" d="M94.0504 7.49326C92.8988 7.62761 91.3195 7.70964 89.5827 7.70964C87.8459 7.70964 86.2665 7.62761 85.115 7.49326C84.542 7.42641 84.0598 7.34494 83.713 7.24929C83.5429 7.20237 83.3812 7.14565 83.2533 7.07272C83.1894 7.03632 83.1141 6.98484 83.0507 6.91193C82.9849 6.83631 82.916 6.71809 82.916 6.5638C82.916 6.40951 82.9849 6.2913 83.0507 6.21568C83.1141 6.14276 83.1894 6.09129 83.2533 6.05488C83.3812 5.98195 83.5429 5.92524 83.713 5.87831C84.0598 5.78267 84.542 5.70119 85.115 5.63434C86.2665 5.5 87.8459 5.41797 89.5827 5.41797C91.3195 5.41797 92.8988 5.5 94.0504 5.63434C94.6233 5.70119 95.1056 5.78267 95.4523 5.87831C95.6224 5.92524 95.7842 5.98195 95.9121 6.05488C95.9759 6.09129 96.0512 6.14276 96.1147 6.21568C96.1805 6.2913 96.2493 6.40951 96.2493 6.5638C96.2493 6.71809 96.1805 6.83631 96.1147 6.91193C96.0512 6.98484 95.9759 7.03632 95.9121 7.07272C95.7842 7.14565 95.6224 7.20237 95.4523 7.24929C95.1056 7.34494 94.6233 7.42641 94.0504 7.49326ZM89.5827 7.29297C93.0345 7.29297 95.8327 6.96651 95.8327 6.5638C95.8327 6.16109 93.0345 5.83464 89.5827 5.83464C86.1309 5.83464 83.3327 6.16109 83.3327 6.5638C83.3327 6.96651 86.1309 7.29297 89.5827 7.29297Z" fill="#AC7349"/>
<path fill-rule="evenodd" clip-rule="evenodd" d="M84.5833 8.33594C84.6984 8.33594 84.7917 8.42921 84.7917 8.54427V9.79427C84.7917 9.90933 84.6984 10.0026 84.5833 10.0026C84.4683 10.0026 84.375 9.90933 84.375 9.79427V8.54427C84.375 8.42921 84.4683 8.33594 84.5833 8.33594Z" fill="white"/>
<path d="M95.4167 6.5638C95.4167 6.85145 92.805 7.08464 89.5833 7.08464C86.3617 7.08464 83.75 6.85145 83.75 6.5638C83.75 6.27615 86.3617 6.04297 89.5833 6.04297C92.805 6.04297 95.4167 6.27615 95.4167 6.5638Z" fill="#75370A"/>
<path d="M93.1246 13.6194C93.1246 13.7868 92.9889 13.9225 92.8216 13.9225C92.6542 13.9225 92.5186 13.7868 92.5186 13.6194C92.5186 13.4521 92.6542 13.3164 92.8216 13.3164C92.9889 13.3164 93.1246 13.4521 93.1246 13.6194Z" fill="#572908"/>
<path d="M92.2154 13.014C92.2154 13.1813 92.0798 13.317 91.9124 13.317C91.745 13.317 91.6094 13.1813 91.6094 13.014C91.6094 12.8466 91.745 12.7109 91.9124 12.7109C92.0798 12.7109 92.2154 12.8466 92.2154 13.014Z" fill="#572908"/>
<path d="M91.6481 12.178C91.6481 12.3454 91.5124 12.4811 91.345 12.4811C91.1777 12.4811 91.042 12.3454 91.042 12.178C91.042 12.0107 91.1777 11.875 91.345 11.875C91.5124 11.875 91.6481 12.0107 91.6481 12.178Z" fill="#572908"/>
<path d="M90.852 13.1843C90.852 13.3098 90.7503 13.4116 90.6247 13.4116C90.4992 13.4116 90.3975 13.3098 90.3975 13.1843C90.3975 13.0588 90.4992 12.957 90.6247 12.957C90.7503 12.957 90.852 13.0588 90.852 13.1843Z" fill="#572908"/>
<path d="M90.4545 12.3132C90.4545 12.4387 90.3528 12.5405 90.2273 12.5405C90.1018 12.5405 90 12.4387 90 12.3132C90 12.1877 90.1018 12.0859 90.2273 12.0859C90.3528 12.0859 90.4545 12.1877 90.4545 12.3132Z" fill="#572908"/>
<path d="M89.8295 13.5632C89.8295 13.6887 89.7278 13.7905 89.6023 13.7905C89.4768 13.7905 89.375 13.6887 89.375 13.5632C89.375 13.4377 89.4768 13.3359 89.6023 13.3359C89.7278 13.3359 89.8295 13.4377 89.8295 13.5632Z" fill="#572908"/>
<path d="M89.8295 15.0202C89.8295 15.1458 89.7278 15.2475 89.6023 15.2475C89.4768 15.2475 89.375 15.1458 89.375 15.0202C89.375 14.8947 89.4768 14.793 89.6023 14.793C89.7278 14.793 89.8295 14.8947 89.8295 15.0202Z" fill="#572908"/>
<path d="M91.0035 15.1351C91.0035 15.3024 90.8679 15.4381 90.7005 15.4381C90.5331 15.4381 90.3975 15.3024 90.3975 15.1351C90.3975 14.9677 90.5331 14.832 90.7005 14.832C90.8679 14.832 91.0035 14.9677 91.0035 15.1351Z" fill="#572908"/>
<path d="M90.4545 14.0906C90.4545 14.2161 90.3528 14.3178 90.2273 14.3178C90.1018 14.3178 90 14.2161 90 14.0906C90 13.965 90.1018 13.8633 90.2273 13.8633C90.3528 13.8633 90.4545 13.965 90.4545 14.0906Z" fill="#572908"/>
<path d="M91.9128 14.1483C91.9128 14.3575 91.7433 14.5271 91.5341 14.5271C91.3249 14.5271 91.1553 14.3575 91.1553 14.1483C91.1553 13.9391 91.3249 13.7695 91.5341 13.7695C91.7433 13.7695 91.9128 13.9391 91.9128 14.1483Z" fill="#572908"/>
<path d="M93.2576 12.0468C93.2576 12.256 93.088 12.4255 92.8788 12.4255C92.6696 12.4255 92.5 12.256 92.5 12.0468C92.5 11.8376 92.6696 11.668 92.8788 11.668C93.088 11.668 93.2576 11.8376 93.2576 12.0468Z" fill="#572908"/>
<path d="M92.8219 14.678C92.8219 14.8454 92.6862 14.9811 92.5189 14.9811C92.3515 14.9811 92.2158 14.8454 92.2158 14.678C92.2158 14.5107 92.3515 14.375 92.5189 14.375C92.6862 14.375 92.8219 14.5107 92.8219 14.678Z" fill="#572908"/>
</svg>
