<svg width="65" height="13" viewBox="0 0 65 13" fill="none" xmlns="http://www.w3.org/2000/svg">
<path fill-rule="evenodd" clip-rule="evenodd" d="M2.84119 9.75996C2.85655 9.83316 2.80967 9.90495 2.73648 9.92032C2.24137 10.0243 1.84822 10.1484 1.5822 10.283C1.44898 10.3503 1.35446 10.4169 1.29491 10.4794C1.23593 10.5412 1.21908 10.5902 1.21908 10.6272C1.21908 10.6628 1.23461 10.7093 1.28812 10.7678C1.34232 10.827 1.42871 10.8907 1.55135 10.9556C1.79638 11.0851 2.15984 11.206 2.6204 11.309C3.53932 11.5145 4.8154 11.6429 6.22949 11.6429C7.64359 11.6429 8.91966 11.5145 9.83859 11.309C10.2991 11.206 10.6626 11.0851 10.9076 10.9556C11.0303 10.8907 11.1167 10.827 11.1709 10.7678C11.2244 10.7093 11.2399 10.6628 11.2399 10.6272C11.2399 10.5902 11.2231 10.5412 11.1641 10.4794C11.1045 10.4169 11.01 10.3503 10.8768 10.283C10.6108 10.1484 10.2176 10.0243 9.7225 9.92032C9.64931 9.90495 9.60243 9.83316 9.6178 9.75996C9.63316 9.68677 9.70496 9.63989 9.77815 9.65526C10.2832 9.7613 10.7026 9.89135 10.999 10.0413C11.147 10.1161 11.2712 10.1993 11.3601 10.2925C11.4495 10.3863 11.5107 10.4987 11.5107 10.6272C11.5107 10.7505 11.4543 10.8592 11.3707 10.9506C11.2878 11.0412 11.172 11.1221 11.0342 11.195C10.7585 11.3408 10.3684 11.468 9.89771 11.5733C8.9542 11.7843 7.65736 11.9137 6.22949 11.9137C4.80162 11.9137 3.50478 11.7843 2.56128 11.5733C2.09062 11.468 1.7005 11.3408 1.42474 11.195C1.28698 11.1221 1.17118 11.0412 1.08829 10.9506C1.00471 10.8592 0.948242 10.7505 0.948242 10.6272C0.948242 10.4987 1.00949 10.3863 1.09891 10.2925C1.18777 10.1993 1.31196 10.1161 1.45996 10.0413C1.75639 9.89135 2.17574 9.7613 2.68084 9.65526C2.75403 9.63989 2.82582 9.68677 2.84119 9.75996Z" fill="#AC7349"/>
<path fill-rule="evenodd" clip-rule="evenodd" d="M10.2252 8.76251C10.1876 8.70086 10.1761 8.62673 10.1934 8.5566C10.2329 8.39656 10.26 8.23007 10.2755 8.06023C10.2829 7.98039 10.3252 7.9079 10.3911 7.86228C10.457 7.81665 10.5398 7.80258 10.6171 7.82385C10.6856 7.84271 10.7581 7.85286 10.8333 7.85286C11.282 7.85286 11.6458 7.4891 11.6458 7.04036C11.6458 6.59163 11.282 6.22786 10.8333 6.22786C10.7628 6.22786 10.6947 6.23679 10.63 6.25345C10.5489 6.27432 10.4627 6.25651 10.3965 6.20521C10.3304 6.15391 10.2916 6.07489 10.2916 5.99116V5.43783C10.2916 5.30555 10.3872 5.19262 10.5177 5.17073C10.6205 5.15348 10.726 5.14453 10.8333 5.14453C11.8804 5.14453 12.7291 5.99332 12.7291 7.04036C12.7291 8.0874 11.8804 8.9362 10.8333 8.9362C10.6823 8.9362 10.5351 8.91849 10.3938 8.88493C10.3235 8.86824 10.2628 8.82417 10.2252 8.76251ZM10.8136 8.12352C10.7209 8.12187 10.6309 8.10855 10.5452 8.08498C10.5369 8.17593 10.5254 8.26635 10.5107 8.3558C10.499 8.42684 10.4853 8.49727 10.4693 8.56688C10.4652 8.58512 10.4608 8.6033 10.4564 8.62142C10.5435 8.64212 10.6333 8.6558 10.7253 8.66183C10.761 8.66417 10.797 8.66536 10.8333 8.66536C11.7308 8.66536 12.4583 7.93783 12.4583 7.04036C12.4583 6.1429 11.7308 5.41536 10.8333 5.41536C10.741 5.41536 10.6506 5.42306 10.5625 5.43783V5.99116C10.649 5.96888 10.7398 5.95703 10.8333 5.95703C11.4316 5.95703 11.9166 6.44206 11.9166 7.04036C11.9166 7.63867 11.4316 8.1237 10.8333 8.1237C10.8267 8.1237 10.8202 8.12364 10.8136 8.12352Z" fill="#AC7349"/>
<path fill-rule="evenodd" clip-rule="evenodd" d="M2.0319 4.19531C2.10669 4.19531 2.16732 4.25594 2.16732 4.33073V7.71733C2.16732 8.66254 2.49423 9.57756 3.31329 10.012C3.98296 10.3673 4.94779 10.6953 6.22982 10.6953C7.51185 10.6953 8.47668 10.3673 9.14635 10.012C9.96541 9.57756 10.2923 8.66254 10.2923 7.71733V4.33073C10.2923 4.25594 10.3529 4.19531 10.4277 4.19531C10.5025 4.19531 10.5632 4.25594 10.5632 4.33073V7.71733C10.5632 8.71133 10.2186 9.74984 9.27326 10.2513C8.56821 10.6253 7.56011 10.9661 6.22982 10.9661C4.89952 10.9661 3.89142 10.6253 3.18637 10.2513C2.24105 9.74984 1.89648 8.71133 1.89648 7.71733V4.33073C1.89648 4.25594 1.95711 4.19531 2.0319 4.19531Z" fill="#AC7349"/>
<path fill-rule="evenodd" clip-rule="evenodd" d="M2.4375 4.97656V7.77588C2.4375 8.50311 2.67815 9.22865 3.29172 9.61903C3.91362 10.0147 4.88357 10.4258 6.22917 10.4258C7.57476 10.4258 8.54471 10.0147 9.16661 9.61903C9.78018 9.22865 10.0208 8.50311 10.0208 7.77588V4.97656C9.43396 5.15407 7.95762 5.28001 6.22917 5.28001C4.50071 5.28001 3.02437 5.15407 2.4375 4.97656Z" fill="#75370A"/>
<path d="M9.16726 9.61903C9.78084 9.22865 10.0215 8.50311 10.0215 7.77588V4.97656C9.70507 5.07227 9.13011 5.15298 8.39648 5.20705V10.0173C8.69575 9.89441 8.9523 9.7558 9.16726 9.61903Z" fill="#572908"/>
<path d="M3.29172 9.61903C2.67815 9.22865 2.4375 8.50311 2.4375 7.77588V4.97656C2.69286 5.0538 3.11661 5.12127 3.65625 5.17286V9.82897C3.52365 9.76009 3.4022 9.68932 3.29172 9.61903Z" fill="#8E4917"/>
<path fill-rule="evenodd" clip-rule="evenodd" d="M9.13382 4.86847C8.38533 4.9558 7.35872 5.00911 6.22982 5.00911C5.10091 5.00911 4.07431 4.9558 3.32581 4.86847C2.95338 4.82502 2.63994 4.77206 2.41455 4.70989C2.30397 4.67939 2.19885 4.64252 2.11571 4.59512C2.0742 4.57146 2.02527 4.538 1.98401 4.4906C1.94123 4.44145 1.89648 4.36461 1.89648 4.26432C1.89648 4.16404 1.94123 4.08719 1.98401 4.03804C2.02527 3.99065 2.0742 3.95719 2.11571 3.93352C2.19885 3.88612 2.30397 3.84926 2.41455 3.81875C2.63994 3.75659 2.95338 3.70362 3.32581 3.66017C4.07431 3.57285 5.10091 3.51953 6.22982 3.51953C7.35872 3.51953 8.38533 3.57285 9.13382 3.66017C9.50625 3.70362 9.8197 3.75659 10.0451 3.81875C10.1557 3.84926 10.2608 3.88612 10.3439 3.93352C10.3854 3.95719 10.4344 3.99065 10.4756 4.03804C10.5184 4.08719 10.5632 4.16404 10.5632 4.26432C10.5632 4.36461 10.5184 4.44145 10.4756 4.4906C10.4344 4.538 10.3854 4.57146 10.3439 4.59512C10.2608 4.64252 10.1557 4.67939 10.0451 4.70989C9.8197 4.77206 9.50625 4.82502 9.13382 4.86847ZM6.22982 4.73828C8.47347 4.73828 10.2923 4.52608 10.2923 4.26432C10.2923 4.00256 8.47347 3.79036 6.22982 3.79036C3.98616 3.79036 2.16732 4.00256 2.16732 4.26432C2.16732 4.52608 3.98616 4.73828 6.22982 4.73828Z" fill="#AC7349"/>
<path fill-rule="evenodd" clip-rule="evenodd" d="M2.97917 5.41406C3.05396 5.41406 3.11458 5.47469 3.11458 5.54948V6.36198C3.11458 6.43677 3.05396 6.4974 2.97917 6.4974C2.90438 6.4974 2.84375 6.43677 2.84375 6.36198V5.54948C2.84375 5.47469 2.90438 5.41406 2.97917 5.41406Z" fill="white"/>
<path d="M10.0208 4.26432C10.0208 4.45129 8.32325 4.60286 6.22917 4.60286C4.13509 4.60286 2.4375 4.45129 2.4375 4.26432C2.4375 4.07735 4.13509 3.92578 6.22917 3.92578C8.32325 3.92578 10.0208 4.07735 10.0208 4.26432Z" fill="#75370A"/>
<path d="M8.53164 8.84931C8.53164 8.9581 8.44345 9.04628 8.33467 9.04628C8.22588 9.04628 8.1377 8.9581 8.1377 8.84931C8.1377 8.74053 8.22588 8.65234 8.33467 8.65234C8.44345 8.65234 8.53164 8.74053 8.53164 8.84931Z" fill="#572908"/>
<path d="M7.94081 8.45478C7.94081 8.56357 7.85263 8.65175 7.74384 8.65175C7.63506 8.65175 7.54688 8.56357 7.54688 8.45478C7.54688 8.346 7.63506 8.25781 7.74384 8.25781C7.85263 8.25781 7.94081 8.346 7.94081 8.45478Z" fill="#572908"/>
<path d="M7.5707 7.91572C7.5707 8.0245 7.48251 8.11269 7.37373 8.11269C7.26494 8.11269 7.17676 8.0245 7.17676 7.91572C7.17676 7.80694 7.26494 7.71875 7.37373 7.71875C7.48251 7.71875 7.5707 7.80694 7.5707 7.91572Z" fill="#572908"/>
<path d="M7.05424 8.5657C7.05424 8.64728 6.9881 8.71342 6.90652 8.71342C6.82493 8.71342 6.75879 8.64728 6.75879 8.5657C6.75879 8.48411 6.82493 8.41797 6.90652 8.41797C6.9881 8.41797 7.05424 8.48411 7.05424 8.5657Z" fill="#572908"/>
<path d="M6.79545 7.99929C6.79545 8.08088 6.72931 8.14702 6.64773 8.14702C6.56614 8.14702 6.5 8.08088 6.5 7.99929C6.5 7.9177 6.56614 7.85156 6.64773 7.85156C6.72931 7.85156 6.79545 7.9177 6.79545 7.99929Z" fill="#572908"/>
<path d="M6.3892 8.81179C6.3892 8.89338 6.32306 8.95952 6.24148 8.95952C6.15989 8.95952 6.09375 8.89338 6.09375 8.81179C6.09375 8.7302 6.15989 8.66406 6.24148 8.66406C6.32306 8.66406 6.3892 8.7302 6.3892 8.81179Z" fill="#572908"/>
<path d="M6.3892 9.76101C6.3892 9.8426 6.32306 9.90874 6.24148 9.90874C6.15989 9.90874 6.09375 9.8426 6.09375 9.76101C6.09375 9.67942 6.15989 9.61328 6.24148 9.61328C6.32306 9.61328 6.3892 9.67942 6.3892 9.76101Z" fill="#572908"/>
<path d="M7.15273 9.83369C7.15273 9.94247 7.06454 10.0307 6.95576 10.0307C6.84698 10.0307 6.75879 9.94247 6.75879 9.83369C6.75879 9.72491 6.84698 9.63672 6.95576 9.63672C7.06454 9.63672 7.15273 9.72491 7.15273 9.83369Z" fill="#572908"/>
<path d="M6.79545 9.15945C6.79545 9.24103 6.72931 9.30717 6.64773 9.30717C6.56614 9.30717 6.5 9.24103 6.5 9.15945C6.5 9.07786 6.56614 9.01172 6.64773 9.01172C6.72931 9.01172 6.79545 9.07786 6.79545 9.15945Z" fill="#572908"/>
<path d="M7.7434 9.19543C7.7434 9.33141 7.63317 9.44164 7.49719 9.44164C7.36121 9.44164 7.25098 9.33141 7.25098 9.19543C7.25098 9.05945 7.36121 8.94922 7.49719 8.94922C7.63317 8.94922 7.7434 9.05945 7.7434 9.19543Z" fill="#572908"/>
<path d="M8.61742 7.82824C8.61742 7.96422 8.50719 8.07446 8.37121 8.07446C8.23523 8.07446 8.125 7.96422 8.125 7.82824C8.125 7.69226 8.23523 7.58203 8.37121 7.58203C8.50719 7.58203 8.61742 7.69226 8.61742 7.82824Z" fill="#572908"/>
<path d="M8.33437 9.54072C8.33437 9.6495 8.24618 9.73769 8.1374 9.73769C8.02862 9.73769 7.94043 9.6495 7.94043 9.54072C7.94043 9.43194 8.02862 9.34375 8.1374 9.34375C8.24618 9.34375 8.33437 9.43194 8.33437 9.54072Z" fill="#572908"/>
<path fill-rule="evenodd" clip-rule="evenodd" d="M15.8412 9.75996C15.8566 9.83316 15.8097 9.90495 15.7365 9.92032C15.2414 10.0243 14.8482 10.1484 14.5822 10.283C14.449 10.3503 14.3545 10.4169 14.2949 10.4794C14.2359 10.5412 14.2191 10.5902 14.2191 10.6272C14.2191 10.6628 14.2346 10.7093 14.2881 10.7678C14.3423 10.827 14.4287 10.8907 14.5514 10.9556C14.7964 11.0851 15.1598 11.206 15.6204 11.309C16.5393 11.5145 17.8154 11.6429 19.2295 11.6429C20.6436 11.6429 21.9197 11.5145 22.8386 11.309C23.2991 11.206 23.6626 11.0851 23.9076 10.9556C24.0303 10.8907 24.1167 10.827 24.1709 10.7678C24.2244 10.7093 24.2399 10.6628 24.2399 10.6272C24.2399 10.5902 24.2231 10.5412 24.1641 10.4794C24.1045 10.4169 24.01 10.3503 23.8768 10.283C23.6108 10.1484 23.2176 10.0243 22.7225 9.92032C22.6493 9.90495 22.6024 9.83316 22.6178 9.75996C22.6332 9.68677 22.705 9.63989 22.7781 9.65526C23.2832 9.7613 23.7026 9.89135 23.999 10.0413C24.147 10.1161 24.2712 10.1993 24.3601 10.2925C24.4495 10.3863 24.5107 10.4987 24.5107 10.6272C24.5107 10.7505 24.4543 10.8592 24.3707 10.9506C24.2878 11.0412 24.172 11.1221 24.0342 11.195C23.7585 11.3408 23.3684 11.468 22.8977 11.5733C21.9542 11.7843 20.6574 11.9137 19.2295 11.9137C17.8016 11.9137 16.5048 11.7843 15.5613 11.5733C15.0906 11.468 14.7005 11.3408 14.4247 11.195C14.287 11.1221 14.1712 11.0412 14.0883 10.9506C14.0047 10.8592 13.9482 10.7505 13.9482 10.6272C13.9482 10.4987 14.0095 10.3863 14.0989 10.2925C14.1878 10.1993 14.312 10.1161 14.46 10.0413C14.7564 9.89135 15.1757 9.7613 15.6808 9.65526C15.754 9.63989 15.8258 9.68677 15.8412 9.75996Z" fill="#AC7349"/>
<path fill-rule="evenodd" clip-rule="evenodd" d="M23.2252 8.76251C23.1876 8.70086 23.1761 8.62673 23.1934 8.5566C23.2329 8.39656 23.26 8.23007 23.2755 8.06023C23.2829 7.98039 23.3252 7.9079 23.3911 7.86228C23.457 7.81665 23.5398 7.80258 23.6171 7.82385C23.6856 7.84271 23.7581 7.85286 23.8333 7.85286C24.282 7.85286 24.6458 7.4891 24.6458 7.04036C24.6458 6.59163 24.282 6.22786 23.8333 6.22786C23.7628 6.22786 23.6947 6.23679 23.63 6.25345C23.5489 6.27432 23.4627 6.25651 23.3965 6.20521C23.3304 6.15391 23.2916 6.07489 23.2916 5.99116V5.43783C23.2916 5.30555 23.3872 5.19262 23.5177 5.17073C23.6205 5.15348 23.726 5.14453 23.8333 5.14453C24.8804 5.14453 25.7291 5.99332 25.7291 7.04036C25.7291 8.0874 24.8804 8.9362 23.8333 8.9362C23.6823 8.9362 23.5351 8.91849 23.3938 8.88493C23.3235 8.86824 23.2628 8.82417 23.2252 8.76251ZM23.8136 8.12352C23.7209 8.12187 23.6309 8.10855 23.5452 8.08498C23.5369 8.17593 23.5254 8.26635 23.5107 8.3558C23.499 8.42684 23.4853 8.49727 23.4693 8.56688C23.4652 8.58512 23.4608 8.6033 23.4564 8.62142C23.5435 8.64212 23.6333 8.6558 23.7253 8.66183C23.761 8.66417 23.797 8.66536 23.8333 8.66536C24.7308 8.66536 25.4583 7.93783 25.4583 7.04036C25.4583 6.1429 24.7308 5.41536 23.8333 5.41536C23.741 5.41536 23.6506 5.42306 23.5625 5.43783V5.99116C23.649 5.96888 23.7398 5.95703 23.8333 5.95703C24.4316 5.95703 24.9166 6.44206 24.9166 7.04036C24.9166 7.63867 24.4316 8.1237 23.8333 8.1237C23.8267 8.1237 23.8202 8.12364 23.8136 8.12352Z" fill="#AC7349"/>
<path fill-rule="evenodd" clip-rule="evenodd" d="M15.0319 4.19531C15.1067 4.19531 15.1673 4.25594 15.1673 4.33073V7.71733C15.1673 8.66254 15.4942 9.57756 16.3133 10.012C16.983 10.3673 17.9478 10.6953 19.2298 10.6953C20.5118 10.6953 21.4767 10.3673 22.1463 10.012C22.9654 9.57756 23.2923 8.66254 23.2923 7.71733V4.33073C23.2923 4.25594 23.3529 4.19531 23.4277 4.19531C23.5025 4.19531 23.5632 4.25594 23.5632 4.33073V7.71733C23.5632 8.71133 23.2186 9.74984 22.2733 10.2513C21.5682 10.6253 20.5601 10.9661 19.2298 10.9661C17.8995 10.9661 16.8914 10.6253 16.1864 10.2513C15.2411 9.74984 14.8965 8.71133 14.8965 7.71733V4.33073C14.8965 4.25594 14.9571 4.19531 15.0319 4.19531Z" fill="#AC7349"/>
<path fill-rule="evenodd" clip-rule="evenodd" d="M15.4375 4.97656V7.77588C15.4375 8.50311 15.6781 9.22865 16.2917 9.61903C16.9136 10.0147 17.8836 10.4258 19.2292 10.4258C20.5748 10.4258 21.5447 10.0147 22.1666 9.61903C22.7802 9.22865 23.0208 8.50311 23.0208 7.77588V4.97656C22.434 5.15407 20.9576 5.28001 19.2292 5.28001C17.5007 5.28001 16.0244 5.15407 15.4375 4.97656Z" fill="#75370A"/>
<path d="M22.1673 9.61903C22.7808 9.22865 23.0215 8.50311 23.0215 7.77588V4.97656C22.7051 5.07227 22.1301 5.15298 21.3965 5.20705V10.0173C21.6958 9.89441 21.9523 9.7558 22.1673 9.61903Z" fill="#572908"/>
<path d="M16.2917 9.61903C15.6781 9.22865 15.4375 8.50311 15.4375 7.77588V4.97656C15.6929 5.0538 16.1166 5.12127 16.6562 5.17286V9.82897C16.5237 9.76009 16.4022 9.68932 16.2917 9.61903Z" fill="#8E4917"/>
<path fill-rule="evenodd" clip-rule="evenodd" d="M22.1338 4.86847C21.3853 4.9558 20.3587 5.00911 19.2298 5.00911C18.1009 5.00911 17.0743 4.9558 16.3258 4.86847C15.9534 4.82502 15.6399 4.77206 15.4146 4.70989C15.304 4.67939 15.1989 4.64252 15.1157 4.59512C15.0742 4.57146 15.0253 4.538 14.984 4.4906C14.9412 4.44145 14.8965 4.36461 14.8965 4.26432C14.8965 4.16404 14.9412 4.08719 14.984 4.03804C15.0253 3.99065 15.0742 3.95719 15.1157 3.93352C15.1989 3.88612 15.304 3.84926 15.4146 3.81875C15.6399 3.75659 15.9534 3.70362 16.3258 3.66017C17.0743 3.57285 18.1009 3.51953 19.2298 3.51953C20.3587 3.51953 21.3853 3.57285 22.1338 3.66017C22.5063 3.70362 22.8197 3.75659 23.0451 3.81875C23.1557 3.84926 23.2608 3.88612 23.3439 3.93352C23.3854 3.95719 23.4344 3.99065 23.4756 4.03804C23.5184 4.08719 23.5632 4.16404 23.5632 4.26432C23.5632 4.36461 23.5184 4.44145 23.4756 4.4906C23.4344 4.538 23.3854 4.57146 23.3439 4.59512C23.2608 4.64252 23.1557 4.67939 23.0451 4.70989C22.8197 4.77206 22.5063 4.82502 22.1338 4.86847ZM19.2298 4.73828C21.4735 4.73828 23.2923 4.52608 23.2923 4.26432C23.2923 4.00256 21.4735 3.79036 19.2298 3.79036C16.9862 3.79036 15.1673 4.00256 15.1673 4.26432C15.1673 4.52608 16.9862 4.73828 19.2298 4.73828Z" fill="#AC7349"/>
<path fill-rule="evenodd" clip-rule="evenodd" d="M15.9792 5.41406C16.054 5.41406 16.1146 5.47469 16.1146 5.54948V6.36198C16.1146 6.43677 16.054 6.4974 15.9792 6.4974C15.9044 6.4974 15.8438 6.43677 15.8438 6.36198V5.54948C15.8438 5.47469 15.9044 5.41406 15.9792 5.41406Z" fill="white"/>
<path d="M23.0208 4.26432C23.0208 4.45129 21.3232 4.60286 19.2292 4.60286C17.1351 4.60286 15.4375 4.45129 15.4375 4.26432C15.4375 4.07735 17.1351 3.92578 19.2292 3.92578C21.3232 3.92578 23.0208 4.07735 23.0208 4.26432Z" fill="#75370A"/>
<path d="M21.5316 8.84931C21.5316 8.9581 21.4434 9.04628 21.3347 9.04628C21.2259 9.04628 21.1377 8.9581 21.1377 8.84931C21.1377 8.74053 21.2259 8.65234 21.3347 8.65234C21.4434 8.65234 21.5316 8.74053 21.5316 8.84931Z" fill="#572908"/>
<path d="M20.9408 8.45478C20.9408 8.56357 20.8526 8.65175 20.7438 8.65175C20.6351 8.65175 20.5469 8.56357 20.5469 8.45478C20.5469 8.346 20.6351 8.25781 20.7438 8.25781C20.8526 8.25781 20.9408 8.346 20.9408 8.45478Z" fill="#572908"/>
<path d="M20.5707 7.91572C20.5707 8.0245 20.4825 8.11269 20.3737 8.11269C20.2649 8.11269 20.1768 8.0245 20.1768 7.91572C20.1768 7.80694 20.2649 7.71875 20.3737 7.71875C20.4825 7.71875 20.5707 7.80694 20.5707 7.91572Z" fill="#572908"/>
<path d="M20.0542 8.5657C20.0542 8.64728 19.9881 8.71342 19.9065 8.71342C19.8249 8.71342 19.7588 8.64728 19.7588 8.5657C19.7588 8.48411 19.8249 8.41797 19.9065 8.41797C19.9881 8.41797 20.0542 8.48411 20.0542 8.5657Z" fill="#572908"/>
<path d="M19.7955 7.99929C19.7955 8.08088 19.7293 8.14702 19.6477 8.14702C19.5661 8.14702 19.5 8.08088 19.5 7.99929C19.5 7.9177 19.5661 7.85156 19.6477 7.85156C19.7293 7.85156 19.7955 7.9177 19.7955 7.99929Z" fill="#572908"/>
<path d="M19.3892 8.81179C19.3892 8.89338 19.3231 8.95952 19.2415 8.95952C19.1599 8.95952 19.0938 8.89338 19.0938 8.81179C19.0938 8.7302 19.1599 8.66406 19.2415 8.66406C19.3231 8.66406 19.3892 8.7302 19.3892 8.81179Z" fill="#572908"/>
<path d="M19.3892 9.76101C19.3892 9.8426 19.3231 9.90874 19.2415 9.90874C19.1599 9.90874 19.0938 9.8426 19.0938 9.76101C19.0938 9.67942 19.1599 9.61328 19.2415 9.61328C19.3231 9.61328 19.3892 9.67942 19.3892 9.76101Z" fill="#572908"/>
<path d="M20.1527 9.83369C20.1527 9.94247 20.0645 10.0307 19.9558 10.0307C19.847 10.0307 19.7588 9.94247 19.7588 9.83369C19.7588 9.72491 19.847 9.63672 19.9558 9.63672C20.0645 9.63672 20.1527 9.72491 20.1527 9.83369Z" fill="#572908"/>
<path d="M19.7955 9.15945C19.7955 9.24103 19.7293 9.30717 19.6477 9.30717C19.5661 9.30717 19.5 9.24103 19.5 9.15945C19.5 9.07786 19.5661 9.01172 19.6477 9.01172C19.7293 9.01172 19.7955 9.07786 19.7955 9.15945Z" fill="#572908"/>
<path d="M20.7434 9.19543C20.7434 9.33141 20.6332 9.44164 20.4972 9.44164C20.3612 9.44164 20.251 9.33141 20.251 9.19543C20.251 9.05945 20.3612 8.94922 20.4972 8.94922C20.6332 8.94922 20.7434 9.05945 20.7434 9.19543Z" fill="#572908"/>
<path d="M21.6174 7.82824C21.6174 7.96422 21.5072 8.07446 21.3712 8.07446C21.2352 8.07446 21.125 7.96422 21.125 7.82824C21.125 7.69226 21.2352 7.58203 21.3712 7.58203C21.5072 7.58203 21.6174 7.69226 21.6174 7.82824Z" fill="#572908"/>
<path d="M21.3344 9.54072C21.3344 9.6495 21.2462 9.73769 21.1374 9.73769C21.0286 9.73769 20.9404 9.6495 20.9404 9.54072C20.9404 9.43194 21.0286 9.34375 21.1374 9.34375C21.2462 9.34375 21.3344 9.43194 21.3344 9.54072Z" fill="#572908"/>
<path fill-rule="evenodd" clip-rule="evenodd" d="M28.8412 9.75996C28.8566 9.83316 28.8097 9.90495 28.7365 9.92032C28.2414 10.0243 27.8482 10.1484 27.5822 10.283C27.449 10.3503 27.3545 10.4169 27.2949 10.4794C27.2359 10.5412 27.2191 10.5902 27.2191 10.6272C27.2191 10.6628 27.2346 10.7093 27.2881 10.7678C27.3423 10.827 27.4287 10.8907 27.5514 10.9556C27.7964 11.0851 28.1598 11.206 28.6204 11.309C29.5393 11.5145 30.8154 11.6429 32.2295 11.6429C33.6436 11.6429 34.9197 11.5145 35.8386 11.309C36.2991 11.206 36.6626 11.0851 36.9076 10.9556C37.0303 10.8907 37.1167 10.827 37.1709 10.7678C37.2244 10.7093 37.2399 10.6628 37.2399 10.6272C37.2399 10.5902 37.2231 10.5412 37.1641 10.4794C37.1045 10.4169 37.01 10.3503 36.8768 10.283C36.6108 10.1484 36.2176 10.0243 35.7225 9.92032C35.6493 9.90495 35.6024 9.83316 35.6178 9.75996C35.6332 9.68677 35.705 9.63989 35.7781 9.65526C36.2832 9.7613 36.7026 9.89135 36.999 10.0413C37.147 10.1161 37.2712 10.1993 37.3601 10.2925C37.4495 10.3863 37.5107 10.4987 37.5107 10.6272C37.5107 10.7505 37.4543 10.8592 37.3707 10.9506C37.2878 11.0412 37.172 11.1221 37.0342 11.195C36.7585 11.3408 36.3684 11.468 35.8977 11.5733C34.9542 11.7843 33.6574 11.9137 32.2295 11.9137C30.8016 11.9137 29.5048 11.7843 28.5613 11.5733C28.0906 11.468 27.7005 11.3408 27.4247 11.195C27.287 11.1221 27.1712 11.0412 27.0883 10.9506C27.0047 10.8592 26.9482 10.7505 26.9482 10.6272C26.9482 10.4987 27.0095 10.3863 27.0989 10.2925C27.1878 10.1993 27.312 10.1161 27.46 10.0413C27.7564 9.89135 28.1757 9.7613 28.6808 9.65526C28.754 9.63989 28.8258 9.68677 28.8412 9.75996Z" fill="#AC7349"/>
<path fill-rule="evenodd" clip-rule="evenodd" d="M36.2252 8.76251C36.1876 8.70086 36.1761 8.62673 36.1934 8.5566C36.2329 8.39656 36.26 8.23007 36.2755 8.06023C36.2829 7.98039 36.3252 7.9079 36.3911 7.86228C36.457 7.81665 36.5398 7.80258 36.6171 7.82385C36.6856 7.84271 36.7581 7.85286 36.8333 7.85286C37.282 7.85286 37.6458 7.4891 37.6458 7.04036C37.6458 6.59163 37.282 6.22786 36.8333 6.22786C36.7628 6.22786 36.6947 6.23679 36.63 6.25345C36.5489 6.27432 36.4627 6.25651 36.3965 6.20521C36.3304 6.15391 36.2916 6.07489 36.2916 5.99116V5.43783C36.2916 5.30555 36.3872 5.19262 36.5177 5.17073C36.6205 5.15348 36.726 5.14453 36.8333 5.14453C37.8804 5.14453 38.7291 5.99332 38.7291 7.04036C38.7291 8.0874 37.8804 8.9362 36.8333 8.9362C36.6823 8.9362 36.5351 8.91849 36.3938 8.88493C36.3235 8.86824 36.2628 8.82417 36.2252 8.76251ZM36.8136 8.12352C36.7209 8.12187 36.6309 8.10855 36.5452 8.08498C36.5369 8.17593 36.5254 8.26635 36.5107 8.3558C36.499 8.42684 36.4853 8.49727 36.4693 8.56688C36.4652 8.58512 36.4608 8.6033 36.4564 8.62142C36.5435 8.64212 36.6333 8.6558 36.7253 8.66183C36.761 8.66417 36.797 8.66536 36.8333 8.66536C37.7308 8.66536 38.4583 7.93783 38.4583 7.04036C38.4583 6.1429 37.7308 5.41536 36.8333 5.41536C36.741 5.41536 36.6506 5.42306 36.5625 5.43783V5.99116C36.649 5.96888 36.7398 5.95703 36.8333 5.95703C37.4316 5.95703 37.9166 6.44206 37.9166 7.04036C37.9166 7.63867 37.4316 8.1237 36.8333 8.1237C36.8267 8.1237 36.8202 8.12364 36.8136 8.12352Z" fill="#AC7349"/>
<path fill-rule="evenodd" clip-rule="evenodd" d="M28.0319 4.19531C28.1067 4.19531 28.1673 4.25594 28.1673 4.33073V7.71733C28.1673 8.66254 28.4942 9.57756 29.3133 10.012C29.983 10.3673 30.9478 10.6953 32.2298 10.6953C33.5118 10.6953 34.4767 10.3673 35.1463 10.012C35.9654 9.57756 36.2923 8.66254 36.2923 7.71733V4.33073C36.2923 4.25594 36.3529 4.19531 36.4277 4.19531C36.5025 4.19531 36.5632 4.25594 36.5632 4.33073V7.71733C36.5632 8.71133 36.2186 9.74984 35.2733 10.2513C34.5682 10.6253 33.5601 10.9661 32.2298 10.9661C30.8995 10.9661 29.8914 10.6253 29.1864 10.2513C28.2411 9.74984 27.8965 8.71133 27.8965 7.71733V4.33073C27.8965 4.25594 27.9571 4.19531 28.0319 4.19531Z" fill="#AC7349"/>
<path fill-rule="evenodd" clip-rule="evenodd" d="M28.4375 4.97656V7.77588C28.4375 8.50311 28.6781 9.22865 29.2917 9.61903C29.9136 10.0147 30.8836 10.4258 32.2292 10.4258C33.5748 10.4258 34.5447 10.0147 35.1666 9.61903C35.7802 9.22865 36.0208 8.50311 36.0208 7.77588V4.97656C35.434 5.15407 33.9576 5.28001 32.2292 5.28001C30.5007 5.28001 29.0244 5.15407 28.4375 4.97656Z" fill="#75370A"/>
<path d="M35.1673 9.61903C35.7808 9.22865 36.0215 8.50311 36.0215 7.77588V4.97656C35.7051 5.07227 35.1301 5.15298 34.3965 5.20705V10.0173C34.6958 9.89441 34.9523 9.7558 35.1673 9.61903Z" fill="#572908"/>
<path d="M29.2917 9.61903C28.6781 9.22865 28.4375 8.50311 28.4375 7.77588V4.97656C28.6929 5.0538 29.1166 5.12127 29.6562 5.17286V9.82897C29.5237 9.76009 29.4022 9.68932 29.2917 9.61903Z" fill="#8E4917"/>
<path fill-rule="evenodd" clip-rule="evenodd" d="M35.1338 4.86847C34.3853 4.9558 33.3587 5.00911 32.2298 5.00911C31.1009 5.00911 30.0743 4.9558 29.3258 4.86847C28.9534 4.82502 28.6399 4.77206 28.4146 4.70989C28.304 4.67939 28.1989 4.64252 28.1157 4.59512C28.0742 4.57146 28.0253 4.538 27.984 4.4906C27.9412 4.44145 27.8965 4.36461 27.8965 4.26432C27.8965 4.16404 27.9412 4.08719 27.984 4.03804C28.0253 3.99065 28.0742 3.95719 28.1157 3.93352C28.1989 3.88612 28.304 3.84926 28.4146 3.81875C28.6399 3.75659 28.9534 3.70362 29.3258 3.66017C30.0743 3.57285 31.1009 3.51953 32.2298 3.51953C33.3587 3.51953 34.3853 3.57285 35.1338 3.66017C35.5063 3.70362 35.8197 3.75659 36.0451 3.81875C36.1557 3.84926 36.2608 3.88612 36.3439 3.93352C36.3854 3.95719 36.4344 3.99065 36.4756 4.03804C36.5184 4.08719 36.5632 4.16404 36.5632 4.26432C36.5632 4.36461 36.5184 4.44145 36.4756 4.4906C36.4344 4.538 36.3854 4.57146 36.3439 4.59512C36.2608 4.64252 36.1557 4.67939 36.0451 4.70989C35.8197 4.77206 35.5063 4.82502 35.1338 4.86847ZM32.2298 4.73828C34.4735 4.73828 36.2923 4.52608 36.2923 4.26432C36.2923 4.00256 34.4735 3.79036 32.2298 3.79036C29.9862 3.79036 28.1673 4.00256 28.1673 4.26432C28.1673 4.52608 29.9862 4.73828 32.2298 4.73828Z" fill="#AC7349"/>
<path fill-rule="evenodd" clip-rule="evenodd" d="M28.9792 5.41406C29.054 5.41406 29.1146 5.47469 29.1146 5.54948V6.36198C29.1146 6.43677 29.054 6.4974 28.9792 6.4974C28.9044 6.4974 28.8438 6.43677 28.8438 6.36198V5.54948C28.8438 5.47469 28.9044 5.41406 28.9792 5.41406Z" fill="white"/>
<path d="M36.0208 4.26432C36.0208 4.45129 34.3232 4.60286 32.2292 4.60286C30.1351 4.60286 28.4375 4.45129 28.4375 4.26432C28.4375 4.07735 30.1351 3.92578 32.2292 3.92578C34.3232 3.92578 36.0208 4.07735 36.0208 4.26432Z" fill="#75370A"/>
<path d="M34.5316 8.84931C34.5316 8.9581 34.4434 9.04628 34.3347 9.04628C34.2259 9.04628 34.1377 8.9581 34.1377 8.84931C34.1377 8.74053 34.2259 8.65234 34.3347 8.65234C34.4434 8.65234 34.5316 8.74053 34.5316 8.84931Z" fill="#572908"/>
<path d="M33.9408 8.45478C33.9408 8.56357 33.8526 8.65175 33.7438 8.65175C33.6351 8.65175 33.5469 8.56357 33.5469 8.45478C33.5469 8.346 33.6351 8.25781 33.7438 8.25781C33.8526 8.25781 33.9408 8.346 33.9408 8.45478Z" fill="#572908"/>
<path d="M33.5707 7.91572C33.5707 8.0245 33.4825 8.11269 33.3737 8.11269C33.2649 8.11269 33.1768 8.0245 33.1768 7.91572C33.1768 7.80694 33.2649 7.71875 33.3737 7.71875C33.4825 7.71875 33.5707 7.80694 33.5707 7.91572Z" fill="#572908"/>
<path d="M33.0542 8.5657C33.0542 8.64728 32.9881 8.71342 32.9065 8.71342C32.8249 8.71342 32.7588 8.64728 32.7588 8.5657C32.7588 8.48411 32.8249 8.41797 32.9065 8.41797C32.9881 8.41797 33.0542 8.48411 33.0542 8.5657Z" fill="#572908"/>
<path d="M32.7955 7.99929C32.7955 8.08088 32.7293 8.14702 32.6477 8.14702C32.5661 8.14702 32.5 8.08088 32.5 7.99929C32.5 7.9177 32.5661 7.85156 32.6477 7.85156C32.7293 7.85156 32.7955 7.9177 32.7955 7.99929Z" fill="#572908"/>
<path d="M32.3892 8.81179C32.3892 8.89338 32.3231 8.95952 32.2415 8.95952C32.1599 8.95952 32.0938 8.89338 32.0938 8.81179C32.0938 8.7302 32.1599 8.66406 32.2415 8.66406C32.3231 8.66406 32.3892 8.7302 32.3892 8.81179Z" fill="#572908"/>
<path d="M32.3892 9.76101C32.3892 9.8426 32.3231 9.90874 32.2415 9.90874C32.1599 9.90874 32.0938 9.8426 32.0938 9.76101C32.0938 9.67942 32.1599 9.61328 32.2415 9.61328C32.3231 9.61328 32.3892 9.67942 32.3892 9.76101Z" fill="#572908"/>
<path d="M33.1527 9.83369C33.1527 9.94247 33.0645 10.0307 32.9558 10.0307C32.847 10.0307 32.7588 9.94247 32.7588 9.83369C32.7588 9.72491 32.847 9.63672 32.9558 9.63672C33.0645 9.63672 33.1527 9.72491 33.1527 9.83369Z" fill="#572908"/>
<path d="M32.7955 9.15945C32.7955 9.24103 32.7293 9.30717 32.6477 9.30717C32.5661 9.30717 32.5 9.24103 32.5 9.15945C32.5 9.07786 32.5661 9.01172 32.6477 9.01172C32.7293 9.01172 32.7955 9.07786 32.7955 9.15945Z" fill="#572908"/>
<path d="M33.7434 9.19543C33.7434 9.33141 33.6332 9.44164 33.4972 9.44164C33.3612 9.44164 33.251 9.33141 33.251 9.19543C33.251 9.05945 33.3612 8.94922 33.4972 8.94922C33.6332 8.94922 33.7434 9.05945 33.7434 9.19543Z" fill="#572908"/>
<path d="M34.6174 7.82824C34.6174 7.96422 34.5072 8.07446 34.3712 8.07446C34.2352 8.07446 34.125 7.96422 34.125 7.82824C34.125 7.69226 34.2352 7.58203 34.3712 7.58203C34.5072 7.58203 34.6174 7.69226 34.6174 7.82824Z" fill="#572908"/>
<path d="M34.3344 9.54072C34.3344 9.6495 34.2462 9.73769 34.1374 9.73769C34.0286 9.73769 33.9404 9.6495 33.9404 9.54072C33.9404 9.43194 34.0286 9.34375 34.1374 9.34375C34.2462 9.34375 34.3344 9.43194 34.3344 9.54072Z" fill="#572908"/>
<path fill-rule="evenodd" clip-rule="evenodd" d="M41.8412 9.75996C41.8566 9.83316 41.8097 9.90495 41.7365 9.92032C41.2414 10.0243 40.8482 10.1484 40.5822 10.283C40.449 10.3503 40.3545 10.4169 40.2949 10.4794C40.2359 10.5412 40.2191 10.5902 40.2191 10.6272C40.2191 10.6628 40.2346 10.7093 40.2881 10.7678C40.3423 10.827 40.4287 10.8907 40.5514 10.9556C40.7964 11.0851 41.1598 11.206 41.6204 11.309C42.5393 11.5145 43.8154 11.6429 45.2295 11.6429C46.6436 11.6429 47.9197 11.5145 48.8386 11.309C49.2991 11.206 49.6626 11.0851 49.9076 10.9556C50.0303 10.8907 50.1167 10.827 50.1709 10.7678C50.2244 10.7093 50.2399 10.6628 50.2399 10.6272C50.2399 10.5902 50.2231 10.5412 50.1641 10.4794C50.1045 10.4169 50.01 10.3503 49.8768 10.283C49.6108 10.1484 49.2176 10.0243 48.7225 9.92032C48.6493 9.90495 48.6024 9.83316 48.6178 9.75996C48.6332 9.68677 48.705 9.63989 48.7781 9.65526C49.2832 9.7613 49.7026 9.89135 49.999 10.0413C50.147 10.1161 50.2712 10.1993 50.3601 10.2925C50.4495 10.3863 50.5107 10.4987 50.5107 10.6272C50.5107 10.7505 50.4543 10.8592 50.3707 10.9506C50.2878 11.0412 50.172 11.1221 50.0342 11.195C49.7585 11.3408 49.3684 11.468 48.8977 11.5733C47.9542 11.7843 46.6574 11.9137 45.2295 11.9137C43.8016 11.9137 42.5048 11.7843 41.5613 11.5733C41.0906 11.468 40.7005 11.3408 40.4247 11.195C40.287 11.1221 40.1712 11.0412 40.0883 10.9506C40.0047 10.8592 39.9482 10.7505 39.9482 10.6272C39.9482 10.4987 40.0095 10.3863 40.0989 10.2925C40.1878 10.1993 40.312 10.1161 40.46 10.0413C40.7564 9.89135 41.1757 9.7613 41.6808 9.65526C41.754 9.63989 41.8258 9.68677 41.8412 9.75996Z" fill="#AC7349"/>
<path fill-rule="evenodd" clip-rule="evenodd" d="M49.2252 8.76251C49.1876 8.70086 49.1761 8.62673 49.1934 8.5566C49.2329 8.39656 49.26 8.23007 49.2755 8.06023C49.2829 7.98039 49.3252 7.9079 49.3911 7.86228C49.457 7.81665 49.5398 7.80258 49.6171 7.82385C49.6856 7.84271 49.7581 7.85286 49.8333 7.85286C50.282 7.85286 50.6458 7.4891 50.6458 7.04036C50.6458 6.59163 50.282 6.22786 49.8333 6.22786C49.7628 6.22786 49.6947 6.23679 49.63 6.25345C49.5489 6.27432 49.4627 6.25651 49.3965 6.20521C49.3304 6.15391 49.2916 6.07489 49.2916 5.99116V5.43783C49.2916 5.30555 49.3872 5.19262 49.5177 5.17073C49.6205 5.15348 49.726 5.14453 49.8333 5.14453C50.8804 5.14453 51.7291 5.99332 51.7291 7.04036C51.7291 8.0874 50.8804 8.9362 49.8333 8.9362C49.6823 8.9362 49.5351 8.91849 49.3938 8.88493C49.3235 8.86824 49.2628 8.82417 49.2252 8.76251ZM49.8136 8.12352C49.7209 8.12187 49.6309 8.10855 49.5452 8.08498C49.5369 8.17593 49.5254 8.26635 49.5107 8.3558C49.499 8.42684 49.4853 8.49727 49.4693 8.56688C49.4652 8.58512 49.4608 8.6033 49.4564 8.62142C49.5435 8.64212 49.6333 8.6558 49.7253 8.66183C49.761 8.66417 49.797 8.66536 49.8333 8.66536C50.7308 8.66536 51.4583 7.93783 51.4583 7.04036C51.4583 6.1429 50.7308 5.41536 49.8333 5.41536C49.741 5.41536 49.6506 5.42306 49.5625 5.43783V5.99116C49.649 5.96888 49.7398 5.95703 49.8333 5.95703C50.4316 5.95703 50.9166 6.44206 50.9166 7.04036C50.9166 7.63867 50.4316 8.1237 49.8333 8.1237C49.8267 8.1237 49.8202 8.12364 49.8136 8.12352Z" fill="#AC7349"/>
<path fill-rule="evenodd" clip-rule="evenodd" d="M41.0319 4.19531C41.1067 4.19531 41.1673 4.25594 41.1673 4.33073V7.71733C41.1673 8.66254 41.4942 9.57756 42.3133 10.012C42.983 10.3673 43.9478 10.6953 45.2298 10.6953C46.5118 10.6953 47.4767 10.3673 48.1463 10.012C48.9654 9.57756 49.2923 8.66254 49.2923 7.71733V4.33073C49.2923 4.25594 49.3529 4.19531 49.4277 4.19531C49.5025 4.19531 49.5632 4.25594 49.5632 4.33073V7.71733C49.5632 8.71133 49.2186 9.74984 48.2733 10.2513C47.5682 10.6253 46.5601 10.9661 45.2298 10.9661C43.8995 10.9661 42.8914 10.6253 42.1864 10.2513C41.2411 9.74984 40.8965 8.71133 40.8965 7.71733V4.33073C40.8965 4.25594 40.9571 4.19531 41.0319 4.19531Z" fill="#AC7349"/>
<path fill-rule="evenodd" clip-rule="evenodd" d="M48.1338 4.86847C47.3853 4.9558 46.3587 5.00911 45.2298 5.00911C44.1009 5.00911 43.0743 4.9558 42.3258 4.86847C41.9534 4.82502 41.6399 4.77206 41.4146 4.70989C41.304 4.67939 41.1989 4.64252 41.1157 4.59512C41.0742 4.57146 41.0253 4.538 40.984 4.4906C40.9412 4.44145 40.8965 4.36461 40.8965 4.26432C40.8965 4.16404 40.9412 4.08719 40.984 4.03804C41.0253 3.99065 41.0742 3.95719 41.1157 3.93352C41.1989 3.88612 41.304 3.84926 41.4146 3.81875C41.6399 3.75659 41.9534 3.70362 42.3258 3.66017C43.0743 3.57285 44.1009 3.51953 45.2298 3.51953C46.3587 3.51953 47.3853 3.57285 48.1338 3.66017C48.5063 3.70362 48.8197 3.75659 49.0451 3.81875C49.1557 3.84926 49.2608 3.88612 49.3439 3.93352C49.3854 3.95719 49.4344 3.99065 49.4756 4.03804C49.5184 4.08719 49.5632 4.16404 49.5632 4.26432C49.5632 4.36461 49.5184 4.44145 49.4756 4.4906C49.4344 4.538 49.3854 4.57146 49.3439 4.59512C49.2608 4.64252 49.1557 4.67939 49.0451 4.70989C48.8197 4.77206 48.5063 4.82502 48.1338 4.86847ZM45.2298 4.73828C47.4735 4.73828 49.2923 4.52608 49.2923 4.26432C49.2923 4.00256 47.4735 3.79036 45.2298 3.79036C42.9862 3.79036 41.1673 4.00256 41.1673 4.26432C41.1673 4.52608 42.9862 4.73828 45.2298 4.73828Z" fill="#AC7349"/>
<path fill-rule="evenodd" clip-rule="evenodd" d="M41.9792 5.41406C42.054 5.41406 42.1146 5.47469 42.1146 5.54948V6.36198C42.1146 6.43677 42.054 6.4974 41.9792 6.4974C41.9044 6.4974 41.8438 6.43677 41.8438 6.36198V5.54948C41.8438 5.47469 41.9044 5.41406 41.9792 5.41406Z" fill="white"/>
<path fill-rule="evenodd" clip-rule="evenodd" d="M54.8412 9.75996C54.8566 9.83316 54.8097 9.90495 54.7365 9.92032C54.2414 10.0243 53.8482 10.1484 53.5822 10.283C53.449 10.3503 53.3545 10.4169 53.2949 10.4794C53.2359 10.5412 53.2191 10.5902 53.2191 10.6272C53.2191 10.6628 53.2346 10.7093 53.2881 10.7678C53.3423 10.827 53.4287 10.8907 53.5514 10.9556C53.7964 11.0851 54.1598 11.206 54.6204 11.309C55.5393 11.5145 56.8154 11.6429 58.2295 11.6429C59.6436 11.6429 60.9197 11.5145 61.8386 11.309C62.2991 11.206 62.6626 11.0851 62.9076 10.9556C63.0303 10.8907 63.1167 10.827 63.1709 10.7678C63.2244 10.7093 63.2399 10.6628 63.2399 10.6272C63.2399 10.5902 63.2231 10.5412 63.1641 10.4794C63.1045 10.4169 63.01 10.3503 62.8768 10.283C62.6108 10.1484 62.2176 10.0243 61.7225 9.92032C61.6493 9.90495 61.6024 9.83316 61.6178 9.75996C61.6332 9.68677 61.705 9.63989 61.7781 9.65526C62.2832 9.7613 62.7026 9.89135 62.999 10.0413C63.147 10.1161 63.2712 10.1993 63.3601 10.2925C63.4495 10.3863 63.5107 10.4987 63.5107 10.6272C63.5107 10.7505 63.4543 10.8592 63.3707 10.9506C63.2878 11.0412 63.172 11.1221 63.0342 11.195C62.7585 11.3408 62.3684 11.468 61.8977 11.5733C60.9542 11.7843 59.6574 11.9137 58.2295 11.9137C56.8016 11.9137 55.5048 11.7843 54.5613 11.5733C54.0906 11.468 53.7005 11.3408 53.4247 11.195C53.287 11.1221 53.1712 11.0412 53.0883 10.9506C53.0047 10.8592 52.9482 10.7505 52.9482 10.6272C52.9482 10.4987 53.0095 10.3863 53.0989 10.2925C53.1878 10.1993 53.312 10.1161 53.46 10.0413C53.7564 9.89135 54.1757 9.7613 54.6808 9.65526C54.754 9.63989 54.8258 9.68677 54.8412 9.75996Z" fill="#AC7349"/>
<path fill-rule="evenodd" clip-rule="evenodd" d="M62.2252 8.76251C62.1876 8.70086 62.1761 8.62673 62.1934 8.5566C62.2329 8.39656 62.26 8.23007 62.2755 8.06023C62.2829 7.98039 62.3252 7.9079 62.3911 7.86228C62.457 7.81665 62.5398 7.80258 62.6171 7.82385C62.6856 7.84271 62.7581 7.85286 62.8333 7.85286C63.282 7.85286 63.6458 7.4891 63.6458 7.04036C63.6458 6.59163 63.282 6.22786 62.8333 6.22786C62.7628 6.22786 62.6947 6.23679 62.63 6.25345C62.5489 6.27432 62.4627 6.25651 62.3965 6.20521C62.3304 6.15391 62.2916 6.07489 62.2916 5.99116V5.43783C62.2916 5.30555 62.3872 5.19262 62.5177 5.17073C62.6205 5.15348 62.726 5.14453 62.8333 5.14453C63.8804 5.14453 64.7291 5.99332 64.7291 7.04036C64.7291 8.0874 63.8804 8.9362 62.8333 8.9362C62.6823 8.9362 62.5351 8.91849 62.3938 8.88493C62.3235 8.86824 62.2628 8.82417 62.2252 8.76251ZM62.8136 8.12352C62.7209 8.12187 62.6309 8.10855 62.5452 8.08498C62.5369 8.17593 62.5254 8.26635 62.5107 8.3558C62.499 8.42684 62.4853 8.49727 62.4693 8.56688C62.4652 8.58512 62.4608 8.6033 62.4564 8.62142C62.5435 8.64212 62.6333 8.6558 62.7253 8.66183C62.761 8.66417 62.797 8.66536 62.8333 8.66536C63.7308 8.66536 64.4583 7.93783 64.4583 7.04036C64.4583 6.1429 63.7308 5.41536 62.8333 5.41536C62.741 5.41536 62.6506 5.42306 62.5625 5.43783V5.99116C62.649 5.96888 62.7398 5.95703 62.8333 5.95703C63.4316 5.95703 63.9166 6.44206 63.9166 7.04036C63.9166 7.63867 63.4316 8.1237 62.8333 8.1237C62.8267 8.1237 62.8202 8.12364 62.8136 8.12352Z" fill="#AC7349"/>
<path fill-rule="evenodd" clip-rule="evenodd" d="M54.0319 4.19531C54.1067 4.19531 54.1673 4.25594 54.1673 4.33073V7.71733C54.1673 8.66254 54.4942 9.57756 55.3133 10.012C55.983 10.3673 56.9478 10.6953 58.2298 10.6953C59.5118 10.6953 60.4767 10.3673 61.1463 10.012C61.9654 9.57756 62.2923 8.66254 62.2923 7.71733V4.33073C62.2923 4.25594 62.3529 4.19531 62.4277 4.19531C62.5025 4.19531 62.5632 4.25594 62.5632 4.33073V7.71733C62.5632 8.71133 62.2186 9.74984 61.2733 10.2513C60.5682 10.6253 59.5601 10.9661 58.2298 10.9661C56.8995 10.9661 55.8914 10.6253 55.1864 10.2513C54.2411 9.74984 53.8965 8.71133 53.8965 7.71733V4.33073C53.8965 4.25594 53.9571 4.19531 54.0319 4.19531Z" fill="#AC7349"/>
<path fill-rule="evenodd" clip-rule="evenodd" d="M61.1338 4.86847C60.3853 4.9558 59.3587 5.00911 58.2298 5.00911C57.1009 5.00911 56.0743 4.9558 55.3258 4.86847C54.9534 4.82502 54.6399 4.77206 54.4146 4.70989C54.304 4.67939 54.1989 4.64252 54.1157 4.59512C54.0742 4.57146 54.0253 4.538 53.984 4.4906C53.9412 4.44145 53.8965 4.36461 53.8965 4.26432C53.8965 4.16404 53.9412 4.08719 53.984 4.03804C54.0253 3.99065 54.0742 3.95719 54.1157 3.93352C54.1989 3.88612 54.304 3.84926 54.4146 3.81875C54.6399 3.75659 54.9534 3.70362 55.3258 3.66017C56.0743 3.57285 57.1009 3.51953 58.2298 3.51953C59.3587 3.51953 60.3853 3.57285 61.1338 3.66017C61.5063 3.70362 61.8197 3.75659 62.0451 3.81875C62.1557 3.84926 62.2608 3.88612 62.3439 3.93352C62.3854 3.95719 62.4344 3.99065 62.4756 4.03804C62.5184 4.08719 62.5632 4.16404 62.5632 4.26432C62.5632 4.36461 62.5184 4.44145 62.4756 4.4906C62.4344 4.538 62.3854 4.57146 62.3439 4.59512C62.2608 4.64252 62.1557 4.67939 62.0451 4.70989C61.8197 4.77206 61.5063 4.82502 61.1338 4.86847ZM58.2298 4.73828C60.4735 4.73828 62.2923 4.52608 62.2923 4.26432C62.2923 4.00256 60.4735 3.79036 58.2298 3.79036C55.9862 3.79036 54.1673 4.00256 54.1673 4.26432C54.1673 4.52608 55.9862 4.73828 58.2298 4.73828Z" fill="#AC7349"/>
<path fill-rule="evenodd" clip-rule="evenodd" d="M54.9792 5.41406C55.054 5.41406 55.1146 5.47469 55.1146 5.54948V6.36198C55.1146 6.43677 55.054 6.4974 54.9792 6.4974C54.9044 6.4974 54.8438 6.43677 54.8438 6.36198V5.54948C54.8438 5.47469 54.9044 5.41406 54.9792 5.41406Z" fill="white"/>
</svg>
